<?xml version="1.0" encoding="UTF-8"?>
<svg id="_レイヤー_2" data-name="レイヤー 2" xmlns="http://www.w3.org/2000/svg" viewBox="0 0 118.21 93.99">
  <defs>
    <style>
      .cls-1 {
        fill: #003987;
      }

      .cls-1, .cls-2 {
        stroke-width: 0px;
      }

      .cls-2 {
        fill: #163787;
      }
    </style>
  </defs>
  <g id="_レイヤー_1-2" data-name="レイヤー 1">
    <g>
      <path class="cls-2" d="M85.16,44.19h12.88c.93,0,1.68-.75,1.68-1.68s-.75-1.68-1.68-1.68h-12.88c-.93,0-1.68.75-1.68,1.68s.75,1.68,1.68,1.68"/>
      <path class="cls-2" d="M65.58,64.67h12.88c.93,0,1.68-.76,1.68-1.68s-.75-1.68-1.68-1.68h-12.88c-.93,0-1.69.75-1.69,1.68s.75,1.68,1.69,1.68"/>
      <path class="cls-2" d="M56.48,34.39h-11.12c-.92,0-1.69.75-1.69,1.68s.76,1.68,1.69,1.68h9.38c-.39,5.26-2.75,8.16-8.25,10.41-.86.35-1.27,1.33-.92,2.19.35.86,1.33,1.27,2.19.92,7.29-2.97,10.4-7.52,10.4-15.2,0-.93-.76-1.68-1.68-1.68"/>
      <path class="cls-2" d="M56.35,55.38h-10.99c-.92,0-1.69.75-1.69,1.68s.76,1.68,1.69,1.68h9.31v8.27h-9.31c-.92,0-1.69.75-1.69,1.68s.76,1.68,1.69,1.68h10.99c.93,0,1.68-.75,1.68-1.68v-11.62c0-.93-.75-1.68-1.68-1.68"/>
      <path class="cls-2" d="M67,43.77v-8.47c0-.92-.75-1.68-1.67-1.68s-1.68.75-1.68,1.68v8.47c0,.93.75,1.68,1.68,1.68s1.67-.75,1.67-1.68"/>
      <path class="cls-2" d="M68.38,51.37c8.07-1.32,9.49-5.09,9.49-12.52v-3.54c0-.92-.75-1.68-1.68-1.68s-1.67.75-1.67,1.68v3.54c0,6.48-.79,8.24-6.68,9.21-.92.15-1.54,1.01-1.39,1.93.15.92,1.01,1.54,1.93,1.38"/>
      <path class="cls-2" d="M85.62,56.3c0,6.15-.33,9.72-2.21,13.38-.43.83-.1,1.84.72,2.26.82.43,1.84.1,2.27-.72,2.4-4.66,2.58-9.12,2.58-14.92,0-.93-.75-1.68-1.68-1.68s-1.68.75-1.68,1.68"/>
      <path class="cls-2" d="M99.47,61.11c-.9-.22-1.81.32-2.04,1.23-.67,2.67-1.93,4.66-3.51,5.7v-12.12c0-.93-.75-1.68-1.67-1.68s-1.68.75-1.68,1.68v14.53c0,.49.21.95.59,1.28.37.32.86.46,1.34.39,3.88-.57,6.95-3.92,8.2-8.96.22-.9-.32-1.81-1.22-2.04"/>
      <path class="cls-1" d="M105.52,17.83C94.34,6.66,77,0,59.1,0,26.51,0,0,21.52,0,47.97c0,5.76,1.7,11.56,4.66,15.88.8,1.17,2.39,1.47,3.55.66,1.17-.79,1.47-2.39.66-3.55-2.39-3.5-3.76-8.23-3.76-13C5.11,24.34,29.34,5.11,59.1,5.11c16.57,0,32.57,6.11,42.8,16.34,7.33,7.32,11.2,16.39,11.2,26.22,0,20.48-19.89,41.21-57.9,41.21-9.64,0-18.06-2.88-23.08-7.91-1.53-1.53-2.7-3.2-3.49-4.98l.38.23c.92.08,1.72-.11,2.3-.6,2.18-1.84,5.36-7.17,5.85-11.69.5-4.53-5.94-6.07-5.03-14.4.4-3.64,5.7-15.35,9.92-18.75,2.79-2.24,6.02-2.26,9.31-1.91,5.19.57,9.36-9.65,9.78-13.54.23-2.14-3.29-4.81-9.07-5.44-3.51-.38-7.3.89-10.81,3.65-7.46,5.83-21.76,32.87-23.18,45.89-.59,5.32,1.45,9.77,4.14,12.76l.16.09c.48,4.53,2.58,8.75,6.13,12.29,6.06,6.07,15.55,9.41,26.7,9.41,18.69,0,34.71-4.86,46.31-14.04,10.77-8.53,16.7-20,16.7-32.27,0-11.22-4.39-21.54-12.69-29.84"/>
    </g>
  </g>
</svg>