<?xml version="1.0" encoding="UTF-8"?>
<svg id="_レイヤー_2" data-name="レイヤー 2" xmlns="http://www.w3.org/2000/svg" viewBox="0 0 444.41 66.14">
  <defs>
    <style>
      .cls-1 {
        fill: #000;
      }

      .cls-1, .cls-2, .cls-3 {
        stroke-width: 0px;
      }

      .cls-2 {
        fill: #293499;
      }

      .cls-3 {
        fill: #fff;
      }
    </style>
  </defs>
  <g id="_ロゴ" data-name="ロゴ">
    <g>
      <g>
        <rect class="cls-2" width="106.82" height="66.14"/>
        <g>
          <path class="cls-3" d="M98.6,31.49v5.87c-11.02,0-19.96,8.93-19.96,19.96h-5.28c0-11.02-8.93-19.96-19.96-19.96s-19.96,8.93-19.96,19.96h-5.28c0-11.02-8.93-19.96-19.96-19.96v-5.87h90.39Z"/>
          <g>
            <path class="cls-3" d="M21.58,15.29c0,1.42-.69,2.43-2.07,3.02.89.33,1.55.78,1.98,1.36.43.58.65,1.29.65,2.14,0,2.85-2.14,4.27-6.41,4.27h-6.8v-2.49h1.81v-9.67h-1.81v-2.49h6.8c1.98,0,3.44.32,4.41.95.96.63,1.44,1.6,1.44,2.89ZM17.79,15.48c0-.57-.21-.97-.62-1.2-.41-.23-.99-.34-1.73-.34h-.89v3.3h1.18c.69,0,1.21-.13,1.55-.4s.51-.72.51-1.36ZM18.24,21.71c0-.71-.21-1.22-.62-1.53-.41-.31-1.12-.47-2.12-.47h-.96v3.9h1.5c.67,0,1.21-.15,1.61-.46.4-.3.6-.78.6-1.44Z"/>
            <path class="cls-3" d="M36.91,15.44c0,.89-.21,1.64-.63,2.25s-1.05,1.1-1.9,1.49l2.36,4.42h1.89v2.49h-4.46l-3.3-6.4h-1.67v3.92h1.84v2.49h-7.67v-2.49h2.01v-9.67h-2.01v-2.49h8.36c1.62,0,2.89.34,3.8,1.02.92.68,1.37,1.67,1.37,2.97ZM32.92,15.61c0-.56-.18-.97-.53-1.25-.36-.28-.84-.42-1.46-.42h-1.73v3.4h1.4c1.55,0,2.32-.58,2.32-1.73Z"/>
            <path class="cls-3" d="M46.53,13.94v9.67h2.25v2.49h-8.28v-2.49h2.21v-9.67h-2.21v-2.49h8.28v2.49h-2.25Z"/>
            <path class="cls-3" d="M66.51,18.95c0,1.53-.33,2.84-.98,3.91-.65,1.07-1.55,1.88-2.7,2.42-1.15.54-2.47.82-3.97.82h-8.07v-2.49h2.22v-9.67h-2.22v-2.49h7.9c1.51,0,2.85.26,4.02.77,1.17.51,2.09,1.33,2.78,2.46.68,1.12,1.02,2.55,1.02,4.27ZM62.53,18.82c0-1.61-.37-2.83-1.12-3.65-.75-.82-1.85-1.23-3.3-1.23h-1.29v9.67h.89c1.31,0,2.33-.22,3.04-.67.71-.44,1.18-1.01,1.42-1.69.24-.68.36-1.49.36-2.42Z"/>
            <path class="cls-3" d="M80.51,12.64v-1.19h2.49v5.19h-2.49c-.3-.86-.82-1.55-1.56-2.06s-1.55-.77-2.45-.77c-.84,0-1.58.19-2.22.58-.64.39-1.14.93-1.49,1.63s-.52,1.52-.52,2.45c0,1.59.38,2.84,1.15,3.75.77.92,1.82,1.37,3.16,1.37.89,0,1.62-.21,2.19-.63.57-.42.97-1.02,1.21-1.8h-2.58v-2.49h6.89c0,1.59-.32,2.96-.95,4.09-.63,1.13-1.54,2-2.72,2.59-1.18.6-2.6.89-4.24.89s-3.11-.3-4.35-.9c-1.24-.6-2.19-1.47-2.86-2.6-.67-1.13-1-2.48-1-4.03,0-1.46.34-2.76,1.02-3.9.68-1.14,1.6-2.03,2.78-2.67s2.51-.96,3.99-.96c1.96,0,3.47.48,4.56,1.44Z"/>
            <path class="cls-3" d="M95.04,16.08v-2.15h-4.54v3.36h3.66v2.47h-3.66v3.84h4.54v-2.17h2.81v4.65h-12.91v-2.49h1.77v-9.67h-1.77v-2.49h12.91v4.63h-2.81Z"/>
          </g>
        </g>
      </g>
      <g>
        <path class="cls-1" d="M121.49,24.09h6.9c4.35,0,7.6,1.22,7.6,5.16,0,1.94-1.13,3.94-3.6,4.58v.12c2.99.52,4.61,2.12,4.61,4.96,0,4.26-3.45,6.18-8.04,6.18h-7.48v-21ZM128.14,32.59c2.5,0,3.57-1.02,3.57-2.73s-1.16-2.32-3.54-2.32h-2.26v5.05h2.23ZM128.57,41.61c2.76,0,4.15-.96,4.15-3.05,0-1.94-1.33-2.76-4.15-2.76h-2.67v5.8h2.67Z"/>
        <path class="cls-1" d="M140.75,24.06h7.31c4.41,0,7.98,1.57,7.98,6.47,0,3.13-1.57,5.08-3.89,6.06l4.84,8.5h-4.96l-4.18-7.77h-2.73v7.77h-4.38v-21.03ZM147.68,33.8c2.61,0,4.03-1.1,4.03-3.28s-1.42-2.96-4.03-2.96h-2.55v6.24h2.55Z"/>
        <path class="cls-1" d="M160.18,41.38h4.96v-13.6h-4.96v-3.71h14.33v3.71h-4.96v13.6h4.96v3.71h-14.33v-3.71Z"/>
        <path class="cls-1" d="M179.38,24.06h5.71c6.12,0,10.01,3.31,10.01,10.44s-3.89,10.59-9.78,10.59h-5.95v-21.03ZM184.86,41.55c3.51,0,5.74-1.97,5.74-7.05s-2.23-6.88-5.74-6.88h-1.07v13.92h1.07Z"/>
        <path class="cls-1" d="M197.82,34.67c0-6.96,4.21-10.99,9.66-10.99,2.81,0,4.79,1.33,6.06,2.67l-2.41,2.73c-.93-.93-1.94-1.6-3.66-1.6-2.96,0-5.1,2.67-5.1,7.05s1.8,7.14,5.25,7.14c.93,0,1.83-.26,2.32-.73v-3.94h-3.25v-3.6h7.19v9.57c-1.36,1.31-3.83,2.49-6.5,2.49-5.37,0-9.57-3.74-9.57-10.79Z"/>
        <path class="cls-1" d="M218.82,24.06h13.75v3.71h-9.37v4.64h7.95v3.66h-7.95v5.31h9.69v3.71h-14.07v-21.03Z"/>
        <path class="cls-1" d="M259.71,39.78c2.18,2.64,5.77,4.18,10.85,4.7-.75.78-1.71,2.23-2.15,3.19-5.42-.87-8.96-2.87-11.4-6.35-1.71,2.7-5.16,4.93-11.72,6.35-.38-.75-1.36-2.15-2.15-2.93,6.21-1.13,9.25-2.9,10.62-4.96h-9.98v-3.22h2.78v-6.64h8.33v-2.9h3.63v2.9h8.7v6.64h2.58v3.22h-10.09ZM249.73,25.86h-5.66v-3.1h5.66v-2.2h3.42v2.2h7.17v-2.2h3.45v2.2h5.71v3.1h-5.71v2.58h-3.45v-2.58h-7.17v2.58h-3.42v-2.58ZM254.84,36.56c.06-.35.06-.7.06-1.04v-2.61h-4.99v3.66h4.93ZM258.52,32.91v2.67c0,.32,0,.67-.03.99h5.22v-3.66h-5.19Z"/>
        <path class="cls-1" d="M279.05,30.27c-1.54,1.1-3.22,2.09-4.9,2.9-.41-.84-1.31-2.15-2.03-2.9,4.96-2.18,9.54-6.29,11.72-9.72h3.6c3.07,4.26,7.69,7.57,12.27,9.2-.87.9-1.62,2.15-2.23,3.16-1.59-.75-3.28-1.71-4.87-2.81v2.29h-13.55v-2.12ZM273.92,34.79h23.99v3.19h-13c-.84,1.71-1.8,3.51-2.67,5.13,2.79-.09,5.77-.2,8.73-.32-.9-1.04-1.89-2.09-2.84-2.96l3.05-1.6c2.58,2.26,5.28,5.28,6.64,7.46l-3.22,1.94c-.29-.55-.7-1.16-1.16-1.8-6.82.38-13.98.67-18.91.9l-.46-3.36,4.38-.15c.78-1.62,1.6-3.54,2.2-5.25h-6.73v-3.19ZM291.35,29.22c-2.23-1.68-4.24-3.57-5.57-5.37-1.25,1.77-3.1,3.65-5.31,5.37h10.88Z"/>
        <path class="cls-1" d="M301.26,25.42h11.02v2.73h-11.02v-2.73ZM311.47,46.45h-6.03v1.13h-2.9v-9.89h8.93v8.76ZM311.33,32.15h-8.7v-2.58h8.7v2.58ZM302.63,33.6h8.7v2.61h-8.7v-2.61ZM311.36,24.03h-8.56v-2.61h8.56v2.61ZM305.44,40.42v3.31h3.1v-3.31h-3.1ZM322.24,32.12v3.83h5.08v11.54h-3.45v-1.28h-6.58v1.39h-3.28v-11.66h4.73v-3.83h-6.24v-3.22h6.24v-3.54c-1.62.2-3.28.35-4.81.46-.12-.84-.55-2.15-.93-2.9,4.35-.38,9.22-1.13,12.3-2.12l2.44,2.87c-1.65.49-3.51.87-5.48,1.19v4.03h6.24v3.22h-6.24ZM323.86,39.05h-6.58v4.06h6.58v-4.06Z"/>
        <path class="cls-1" d="M353.5,25.42c-.23.32-.75,1.22-1.01,1.8-.99,2.26-2.61,5.37-4.55,7.98,2.87,2.49,6.38,6.21,8.09,8.3l-3.31,2.87c-1.88-2.61-4.58-5.57-7.31-8.21-3.07,3.25-6.93,6.27-10.91,8.15l-2.99-3.13c4.67-1.77,9.17-5.28,11.89-8.32,1.91-2.18,3.68-5.05,4.32-7.11h-9.83c-1.22,0-2.81.17-3.42.2v-4.12c.78.12,2.55.2,3.42.2h10.21c1.28,0,2.44-.17,3.02-.38l2.38,1.77Z"/>
        <path class="cls-1" d="M384.38,27.05c-.32.55-.72,1.36-.96,2.09-.78,2.58-2.44,6.44-5.05,9.69-2.76,3.36-6.27,6-11.72,8.18l-3.42-3.07c5.95-1.77,9.17-4.29,11.69-7.17,1.97-2.26,3.65-5.74,4.12-7.92h-8.15c-1.94,2.52-4.47,5.08-7.31,7.02l-3.25-2.41c5.08-3.1,7.6-6.85,9.05-9.34.43-.73,1.04-2.06,1.3-3.05l4.24,1.39c-.7,1.02-1.42,2.32-1.77,2.96l-.09.15h5.83c.9,0,1.86-.15,2.52-.35l2.96,1.83Z"/>
        <path class="cls-1" d="M389.97,31.66c1.04.09,3.16.17,4.67.17h15.58c1.33,0,2.64-.12,3.39-.17v4.55c-.7-.03-2.18-.15-3.39-.15h-15.58c-1.65,0-3.6.06-4.67.15v-4.55Z"/>
        <path class="cls-1" d="M417.47,44.01c2.55-1.8,4.12-4.47,4.93-6.93.81-2.49.84-7.98.84-11.49,0-1.16-.09-1.94-.26-2.64h4.26c-.03.12-.2,1.42-.2,2.61,0,3.42-.09,9.54-.87,12.47-.87,3.28-2.67,6.12-5.16,8.33l-3.54-2.35ZM430.9,44.45c.12-.55.23-1.36.23-2.15v-16.91c0-1.31-.2-2.41-.23-2.49h4.32c-.03.09-.2,1.22-.2,2.52v15.17c2.35-1.02,5.22-3.31,7.16-6.12l2.23,3.19c-2.41,3.13-6.58,6.27-9.83,7.92-.61.32-.9.58-1.28.87l-2.41-2Z"/>
      </g>
    </g>
  </g>
</svg>