<?xml version="1.0" encoding="UTF-8"?>
<svg id="_レイヤー_2" data-name="レイヤー 2" xmlns="http://www.w3.org/2000/svg" viewBox="0 0 551.82 580.63">
  <defs>
    <style>
      .cls-1 {
        fill: #fff;
        stroke-width: 0px;
      }
    </style>
  </defs>
  <g id="_レイヤー_1-2" data-name="レイヤー 1">
    <path class="cls-1" d="M9.42,577.79c0,1.56,1.27,2.83,2.82,2.83s2.82-1.28,2.82-2.83v-.07c0-1.56-1.27-2.83-2.82-2.83s-2.82,1.28-2.82,2.83v.07Z"/>
    <path class="cls-1" d="M0,577.79c0,1.56,1.27,2.83,2.82,2.83s2.82-1.28,2.82-2.83v-.07c0-1.56-1.27-2.83-2.82-2.83s-2.82,1.28-2.82,2.83v.07Z"/>
    <path class="cls-1" d="M37.67,568.22c0,1.56,1.27,2.83,2.83,2.83s2.83-1.28,2.83-2.83v-.07c0-1.56-1.27-2.83-2.83-2.83s-2.83,1.28-2.83,2.83v.07Z"/>
    <path class="cls-1" d="M169.5,539.5c0,1.56,1.27,2.83,2.82,2.83s2.82-1.28,2.82-2.83v-.07c0-1.56-1.27-2.83-2.82-2.83s-2.82,1.28-2.82,2.83v.07Z"/>
    <path class="cls-1" d="M0,539.5c0,1.56,1.27,2.83,2.82,2.83s2.82-1.28,2.82-2.83v-.07c0-1.56-1.27-2.83-2.82-2.83s-2.82,1.28-2.82,2.83v.07Z"/>
    <path class="cls-1" d="M94.17,529.93c0,1.56,1.27,2.83,2.82,2.83s2.82-1.28,2.82-2.83v-.07c0-1.56-1.27-2.83-2.82-2.83s-2.82,1.28-2.82,2.83v.07Z"/>
    <path class="cls-1" d="M84.75,529.93c0,1.56,1.27,2.83,2.82,2.83s2.82-1.28,2.82-2.83v-.07c0-1.56-1.27-2.83-2.82-2.83s-2.82,1.28-2.82,2.83v.07Z"/>
    <path class="cls-1" d="M103.58,520.36c0,1.56,1.27,2.83,2.82,2.83s2.82-1.28,2.82-2.83v-.07c0-1.56-1.27-2.83-2.82-2.83s-2.82,1.28-2.82,2.83v.07Z"/>
    <path class="cls-1" d="M94.17,520.36c0,1.56,1.27,2.83,2.82,2.83s2.82-1.28,2.82-2.83v-.07c0-1.56-1.27-2.83-2.82-2.83s-2.82,1.28-2.82,2.83v.07Z"/>
    <path class="cls-1" d="M103.58,510.79c0,1.56,1.27,2.83,2.82,2.83s2.82-1.28,2.82-2.83v-.07c0-1.56-1.27-2.83-2.82-2.83s-2.82,1.28-2.82,2.83v.07Z"/>
    <path class="cls-1" d="M94.17,510.79c0,1.56,1.27,2.83,2.82,2.83s2.82-1.28,2.82-2.83v-.07c0-1.56-1.27-2.83-2.82-2.83s-2.82,1.28-2.82,2.83v.07Z"/>
    <path class="cls-1" d="M113,501.21c0,1.56,1.27,2.83,2.82,2.83s2.82-1.28,2.82-2.83v-.07c0-1.56-1.27-2.83-2.82-2.83s-2.82,1.28-2.82,2.83v.07Z"/>
    <path class="cls-1" d="M141.25,482.07c0,1.56,1.27,2.83,2.83,2.83s2.83-1.28,2.83-2.83v-.07c0-1.56-1.27-2.83-2.83-2.83s-2.83,1.28-2.83,2.83v.07Z"/>
    <path class="cls-1" d="M122.42,482.07c0,1.56,1.27,2.83,2.82,2.83s2.82-1.28,2.82-2.83v-.07c0-1.56-1.27-2.83-2.82-2.83s-2.82,1.28-2.82,2.83v.07Z"/>
    <path class="cls-1" d="M131.83,472.5c0,1.56,1.27,2.83,2.82,2.83s2.82-1.28,2.82-2.83v-.07c0-1.56-1.27-2.83-2.82-2.83s-2.82,1.28-2.82,2.83v.07Z"/>
    <path class="cls-1" d="M131.83,443.78c0,1.56,1.27,2.83,2.82,2.83s2.82-1.28,2.82-2.83v-.07c0-1.56-1.27-2.83-2.82-2.83s-2.82,1.28-2.82,2.83v.07Z"/>
    <path class="cls-1" d="M141.25,434.21c0,1.56,1.27,2.83,2.83,2.83s2.83-1.28,2.83-2.83v-.07c0-1.56-1.27-2.83-2.83-2.83s-2.83,1.28-2.83,2.83v.07Z"/>
    <path class="cls-1" d="M160.08,424.63c0,1.56,1.27,2.83,2.82,2.83s2.82-1.28,2.82-2.83v-.07c0-1.56-1.27-2.83-2.82-2.83s-2.82,1.28-2.82,2.83v.07Z"/>
    <path class="cls-1" d="M150.67,424.63c0,1.56,1.27,2.83,2.83,2.83s2.83-1.28,2.83-2.83v-.07c0-1.56-1.27-2.83-2.83-2.83s-2.83,1.28-2.83,2.83v.07Z"/>
    <path class="cls-1" d="M160.08,415.06c0,1.56,1.27,2.83,2.82,2.83s2.82-1.28,2.82-2.83v-.07c0-1.56-1.27-2.83-2.82-2.83s-2.82,1.28-2.82,2.83v.07Z"/>
    <path class="cls-1" d="M150.67,415.06c0,1.56,1.27,2.83,2.83,2.83s2.83-1.28,2.83-2.83v-.07c0-1.56-1.27-2.83-2.83-2.83s-2.83,1.28-2.83,2.83v.07Z"/>
    <path class="cls-1" d="M141.25,415.06c0,1.56,1.27,2.83,2.83,2.83s2.83-1.28,2.83-2.83v-.07c0-1.56-1.27-2.83-2.83-2.83s-2.83,1.28-2.83,2.83v.07Z"/>
    <path class="cls-1" d="M160.08,405.49c0,1.56,1.27,2.83,2.82,2.83s2.82-1.28,2.82-2.83v-.07c0-1.56-1.27-2.83-2.82-2.83s-2.82,1.28-2.82,2.83v.07Z"/>
    <path class="cls-1" d="M150.67,405.49c0,1.56,1.27,2.83,2.83,2.83s2.83-1.28,2.83-2.83v-.07c0-1.56-1.27-2.83-2.83-2.83s-2.83,1.28-2.83,2.83v.07Z"/>
    <path class="cls-1" d="M169.5,395.92c0,1.56,1.27,2.83,2.82,2.83s2.82-1.28,2.82-2.83v-.07c0-1.56-1.27-2.83-2.82-2.83s-2.82,1.28-2.82,2.83v.07Z"/>
    <path class="cls-1" d="M169.5,405.49c0,1.56,1.27,2.83,2.82,2.83s2.82-1.28,2.82-2.83v-.07c0-1.56-1.27-2.83-2.82-2.83s-2.82,1.28-2.82,2.83v.07Z"/>
    <path class="cls-1" d="M160.08,395.92c0,1.56,1.27,2.83,2.82,2.83s2.82-1.28,2.82-2.83v-.07c0-1.56-1.27-2.83-2.82-2.83s-2.82,1.28-2.82,2.83v.07Z"/>
    <path class="cls-1" d="M150.67,395.92c0,1.56,1.27,2.83,2.83,2.83s2.83-1.28,2.83-2.83v-.07c0-1.56-1.27-2.83-2.83-2.83s-2.83,1.28-2.83,2.83v.07Z"/>
    <path class="cls-1" d="M141.25,405.49c0,1.56,1.27,2.83,2.83,2.83s2.83-1.28,2.83-2.83v-.07c0-1.56-1.27-2.83-2.83-2.83s-2.83,1.28-2.83,2.83v.07Z"/>
    <path class="cls-1" d="M141.25,395.92c0,1.56,1.27,2.83,2.83,2.83s2.83-1.28,2.83-2.83v-.07c0-1.56-1.27-2.83-2.83-2.83s-2.83,1.28-2.83,2.83v.07Z"/>
    <path class="cls-1" d="M131.83,395.92c0,1.56,1.27,2.83,2.82,2.83s2.82-1.28,2.82-2.83v-.07c0-1.56-1.27-2.83-2.82-2.83s-2.82,1.28-2.82,2.83v.07Z"/>
    <path class="cls-1" d="M160.08,386.35c0,1.56,1.27,2.83,2.82,2.83s2.82-1.28,2.82-2.83v-.07c0-1.56-1.27-2.83-2.82-2.83s-2.82,1.28-2.82,2.83v.07Z"/>
    <path class="cls-1" d="M150.67,386.35c0,1.56,1.27,2.83,2.83,2.83s2.83-1.28,2.83-2.83v-.07c0-1.56-1.27-2.83-2.83-2.83s-2.83,1.28-2.83,2.83v.07Z"/>
    <path class="cls-1" d="M141.25,386.35c0,1.56,1.27,2.83,2.83,2.83s2.83-1.28,2.83-2.83v-.07c0-1.56-1.27-2.83-2.83-2.83s-2.83,1.28-2.83,2.83v.07Z"/>
    <path class="cls-1" d="M131.83,386.35c0,1.56,1.27,2.83,2.82,2.83s2.82-1.28,2.82-2.83v-.07c0-1.56-1.27-2.83-2.82-2.83s-2.82,1.28-2.82,2.83v.07Z"/>
    <path class="cls-1" d="M169.5,376.77c0,1.56,1.27,2.83,2.82,2.83s2.82-1.28,2.82-2.83v-.07c0-1.56-1.27-2.83-2.82-2.83s-2.82,1.28-2.82,2.83v.07Z"/>
    <path class="cls-1" d="M160.08,376.77c0,1.56,1.27,2.83,2.82,2.83s2.82-1.28,2.82-2.83v-.07c0-1.56-1.27-2.83-2.82-2.83s-2.82,1.28-2.82,2.83v.07Z"/>
    <path class="cls-1" d="M150.67,376.77c0,1.56,1.27,2.83,2.83,2.83s2.83-1.28,2.83-2.83v-.07c0-1.56-1.27-2.83-2.83-2.83s-2.83,1.28-2.83,2.83v.07Z"/>
    <path class="cls-1" d="M141.25,376.77c0,1.56,1.27,2.83,2.83,2.83s2.83-1.28,2.83-2.83v-.07c0-1.56-1.27-2.83-2.83-2.83s-2.83,1.28-2.83,2.83v.07Z"/>
    <path class="cls-1" d="M207.17,367.2c0,1.56,1.27,2.83,2.83,2.83s2.83-1.28,2.83-2.83v-.07c0-1.56-1.27-2.83-2.83-2.83s-2.83,1.28-2.83,2.83v.07Z"/>
    <path class="cls-1" d="M197.75,367.2c0,1.56,1.27,2.83,2.82,2.83s2.82-1.28,2.82-2.83v-.07c0-1.56-1.27-2.83-2.82-2.83s-2.82,1.28-2.82,2.83v.07Z"/>
    <path class="cls-1" d="M188.33,367.2c0,1.56,1.27,2.83,2.82,2.83s2.82-1.28,2.82-2.83v-.07c0-1.56-1.27-2.83-2.82-2.83s-2.82,1.28-2.82,2.83v.07Z"/>
    <path class="cls-1" d="M169.5,367.2c0,1.56,1.27,2.83,2.82,2.83s2.82-1.28,2.82-2.83v-.07c0-1.56-1.27-2.83-2.82-2.83s-2.82,1.28-2.82,2.83v.07Z"/>
    <path class="cls-1" d="M160.08,367.2c0,1.56,1.27,2.83,2.82,2.83s2.82-1.28,2.82-2.83v-.07c0-1.56-1.27-2.83-2.82-2.83s-2.82,1.28-2.82,2.83v.07Z"/>
    <path class="cls-1" d="M150.67,367.2c0,1.56,1.27,2.83,2.83,2.83s2.83-1.28,2.83-2.83v-.07c0-1.56-1.27-2.83-2.83-2.83s-2.83,1.28-2.83,2.83v.07Z"/>
    <path class="cls-1" d="M141.25,367.2c0,1.56,1.27,2.83,2.83,2.83s2.83-1.28,2.83-2.83v-.07c0-1.56-1.27-2.83-2.83-2.83s-2.83,1.28-2.83,2.83v.07Z"/>
    <path class="cls-1" d="M131.83,367.2c0,1.56,1.27,2.83,2.82,2.83s2.82-1.28,2.82-2.83v-.07c0-1.56-1.27-2.83-2.82-2.83s-2.82,1.28-2.82,2.83v.07Z"/>
    <path class="cls-1" d="M122.42,367.2c0,1.56,1.27,2.83,2.82,2.83s2.82-1.28,2.82-2.83v-.07c0-1.56-1.27-2.83-2.82-2.83s-2.82,1.28-2.82,2.83v.07Z"/>
    <path class="cls-1" d="M113,367.2c0,1.56,1.27,2.83,2.82,2.83s2.82-1.28,2.82-2.83v-.07c0-1.56-1.27-2.83-2.82-2.83s-2.82,1.28-2.82,2.83v.07Z"/>
    <path class="cls-1" d="M207.17,357.63c0,1.56,1.27,2.83,2.83,2.83s2.83-1.28,2.83-2.83v-.07c0-1.56-1.27-2.83-2.83-2.83s-2.83,1.28-2.83,2.83v.07Z"/>
    <path class="cls-1" d="M197.75,357.63c0,1.56,1.27,2.83,2.82,2.83s2.82-1.28,2.82-2.83v-.07c0-1.56-1.27-2.83-2.82-2.83s-2.82,1.28-2.82,2.83v.07Z"/>
    <path class="cls-1" d="M188.33,357.63c0,1.56,1.27,2.83,2.82,2.83s2.82-1.28,2.82-2.83v-.07c0-1.56-1.27-2.83-2.82-2.83s-2.82,1.28-2.82,2.83v.07Z"/>
    <path class="cls-1" d="M160.08,357.63c0,1.56,1.27,2.83,2.82,2.83s2.82-1.28,2.82-2.83v-.07c0-1.56-1.27-2.83-2.82-2.83s-2.82,1.28-2.82,2.83v.07Z"/>
    <path class="cls-1" d="M150.67,357.63c0,1.56,1.27,2.83,2.83,2.83s2.83-1.28,2.83-2.83v-.07c0-1.56-1.27-2.83-2.83-2.83s-2.83,1.28-2.83,2.83v.07Z"/>
    <path class="cls-1" d="M141.25,357.63c0,1.56,1.27,2.83,2.83,2.83s2.83-1.28,2.83-2.83v-.07c0-1.56-1.27-2.83-2.83-2.83s-2.83,1.28-2.83,2.83v.07Z"/>
    <path class="cls-1" d="M131.83,357.63c0,1.56,1.27,2.83,2.82,2.83s2.82-1.28,2.82-2.83v-.07c0-1.56-1.27-2.83-2.82-2.83s-2.82,1.28-2.82,2.83v.07Z"/>
    <path class="cls-1" d="M122.42,357.63c0,1.56,1.27,2.83,2.82,2.83s2.82-1.28,2.82-2.83v-.07c0-1.56-1.27-2.83-2.82-2.83s-2.82,1.28-2.82,2.83v.07Z"/>
    <path class="cls-1" d="M273.08,348.06c0,1.56,1.27,2.83,2.82,2.83s2.82-1.28,2.82-2.83v-.07c0-1.56-1.27-2.83-2.82-2.83s-2.82,1.28-2.82,2.83v.07Z"/>
    <path class="cls-1" d="M263.67,348.06c0,1.56,1.27,2.83,2.82,2.83s2.82-1.28,2.82-2.83v-.07c0-1.56-1.27-2.83-2.82-2.83s-2.82,1.28-2.82,2.83v.07Z"/>
    <path class="cls-1" d="M235.42,348.06c0,1.56,1.27,2.83,2.83,2.83s2.83-1.28,2.83-2.83v-.07c0-1.56-1.27-2.83-2.83-2.83s-2.83,1.28-2.83,2.83v.07Z"/>
    <path class="cls-1" d="M226,348.06c0,1.56,1.27,2.83,2.82,2.83s2.82-1.28,2.82-2.83v-.07c0-1.56-1.27-2.83-2.82-2.83s-2.82,1.28-2.82,2.83v.07Z"/>
    <path class="cls-1" d="M216.58,348.06c0,1.56,1.27,2.83,2.82,2.83s2.82-1.28,2.82-2.83v-.07c0-1.56-1.27-2.83-2.82-2.83s-2.82,1.28-2.82,2.83v.07Z"/>
    <path class="cls-1" d="M216.58,357.63c0,1.56,1.27,2.83,2.82,2.83s2.82-1.28,2.82-2.83v-.07c0-1.56-1.27-2.83-2.82-2.83s-2.82,1.28-2.82,2.83v.07Z"/>
    <path class="cls-1" d="M226,357.63c0,1.56,1.27,2.83,2.82,2.83s2.82-1.28,2.82-2.83v-.07c0-1.56-1.27-2.83-2.82-2.83s-2.82,1.28-2.82,2.83v.07Z"/>
    <path class="cls-1" d="M207.17,348.06c0,1.56,1.27,2.83,2.83,2.83s2.83-1.28,2.83-2.83v-.07c0-1.56-1.27-2.83-2.83-2.83s-2.83,1.28-2.83,2.83v.07Z"/>
    <path class="cls-1" d="M197.75,348.06c0,1.56,1.27,2.83,2.82,2.83s2.82-1.28,2.82-2.83v-.07c0-1.56-1.27-2.83-2.82-2.83s-2.82,1.28-2.82,2.83v.07Z"/>
    <path class="cls-1" d="M178.92,348.06c0,1.56,1.27,2.83,2.83,2.83s2.83-1.28,2.83-2.83v-.07c0-1.56-1.27-2.83-2.83-2.83s-2.83,1.28-2.83,2.83v.07Z"/>
    <path class="cls-1" d="M169.5,348.06c0,1.56,1.27,2.83,2.82,2.83s2.82-1.28,2.82-2.83v-.07c0-1.56-1.27-2.83-2.82-2.83s-2.82,1.28-2.82,2.83v.07Z"/>
    <path class="cls-1" d="M150.67,348.06c0,1.56,1.27,2.83,2.83,2.83s2.83-1.28,2.83-2.83v-.07c0-1.56-1.27-2.83-2.83-2.83s-2.83,1.28-2.83,2.83v.07Z"/>
    <path class="cls-1" d="M141.25,348.06c0,1.56,1.27,2.83,2.83,2.83s2.83-1.28,2.83-2.83v-.07c0-1.56-1.27-2.83-2.83-2.83s-2.83,1.28-2.83,2.83v.07Z"/>
    <path class="cls-1" d="M131.83,348.06c0,1.56,1.27,2.83,2.82,2.83s2.82-1.28,2.82-2.83v-.07c0-1.56-1.27-2.83-2.82-2.83s-2.82,1.28-2.82,2.83v.07Z"/>
    <path class="cls-1" d="M273.08,338.48c0,1.56,1.27,2.83,2.82,2.83s2.82-1.28,2.82-2.83v-.07c0-1.56-1.27-2.83-2.82-2.83s-2.82,1.28-2.82,2.83v.07Z"/>
    <path class="cls-1" d="M263.67,338.48c0,1.56,1.27,2.83,2.82,2.83s2.82-1.28,2.82-2.83v-.07c0-1.56-1.27-2.83-2.82-2.83s-2.82,1.28-2.82,2.83v.07Z"/>
    <path class="cls-1" d="M254.25,338.48c0,1.56,1.27,2.83,2.82,2.83s2.82-1.28,2.82-2.83v-.07c0-1.56-1.27-2.83-2.82-2.83s-2.82,1.28-2.82,2.83v.07Z"/>
    <path class="cls-1" d="M235.42,338.48c0,1.56,1.27,2.83,2.83,2.83s2.83-1.28,2.83-2.83v-.07c0-1.56-1.27-2.83-2.83-2.83s-2.83,1.28-2.83,2.83v.07Z"/>
    <path class="cls-1" d="M226,338.48c0,1.56,1.27,2.83,2.82,2.83s2.82-1.28,2.82-2.83v-.07c0-1.56-1.27-2.83-2.82-2.83s-2.82,1.28-2.82,2.83v.07Z"/>
    <path class="cls-1" d="M226,328.91c0,1.56,1.27,2.83,2.82,2.83s2.82-1.28,2.82-2.83v-.07c0-1.56-1.27-2.83-2.82-2.83s-2.82,1.28-2.82,2.83v.07Z"/>
    <path class="cls-1" d="M216.58,338.48c0,1.56,1.27,2.83,2.82,2.83s2.82-1.28,2.82-2.83v-.07c0-1.56-1.27-2.83-2.82-2.83s-2.82,1.28-2.82,2.83v.07Z"/>
    <path class="cls-1" d="M207.17,338.48c0,1.56,1.27,2.83,2.83,2.83s2.83-1.28,2.83-2.83v-.07c0-1.56-1.27-2.83-2.83-2.83s-2.83,1.28-2.83,2.83v.07Z"/>
    <path class="cls-1" d="M178.92,338.48c0,1.56,1.27,2.83,2.83,2.83s2.83-1.28,2.83-2.83v-.07c0-1.56-1.27-2.83-2.83-2.83s-2.83,1.28-2.83,2.83v.07Z"/>
    <path class="cls-1" d="M169.5,338.48c0,1.56,1.27,2.83,2.82,2.83s2.82-1.28,2.82-2.83v-.07c0-1.56-1.27-2.83-2.82-2.83s-2.82,1.28-2.82,2.83v.07Z"/>
    <path class="cls-1" d="M150.67,338.48c0,1.56,1.27,2.83,2.83,2.83s2.83-1.28,2.83-2.83v-.07c0-1.56-1.27-2.83-2.83-2.83s-2.83,1.28-2.83,2.83v.07Z"/>
    <path class="cls-1" d="M141.25,338.48c0,1.56,1.27,2.83,2.83,2.83s2.83-1.28,2.83-2.83v-.07c0-1.56-1.27-2.83-2.83-2.83s-2.83,1.28-2.83,2.83v.07Z"/>
    <path class="cls-1" d="M357.83,319.34c0,1.56,1.27,2.83,2.82,2.83s2.82-1.28,2.82-2.83v-.07c0-1.56-1.27-2.83-2.82-2.83s-2.82,1.28-2.82,2.83v.07Z"/>
    <path class="cls-1" d="M282.5,328.91c0,1.56,1.27,2.83,2.83,2.83s2.83-1.28,2.83-2.83v-.07c0-1.56-1.27-2.83-2.83-2.83s-2.83,1.28-2.83,2.83v.07Z"/>
    <path class="cls-1" d="M273.08,328.91c0,1.56,1.27,2.83,2.82,2.83s2.82-1.28,2.82-2.83v-.07c0-1.56-1.27-2.83-2.82-2.83s-2.82,1.28-2.82,2.83v.07Z"/>
    <path class="cls-1" d="M263.67,328.91c0,1.56,1.27,2.83,2.82,2.83s2.82-1.28,2.82-2.83v-.07c0-1.56-1.27-2.83-2.82-2.83s-2.82,1.28-2.82,2.83v.07Z"/>
    <path class="cls-1" d="M254.25,328.91c0,1.56,1.27,2.83,2.82,2.83s2.82-1.28,2.82-2.83v-.07c0-1.56-1.27-2.83-2.82-2.83s-2.82,1.28-2.82,2.83v.07Z"/>
    <path class="cls-1" d="M197.75,328.91c0,1.56,1.27,2.83,2.82,2.83s2.82-1.28,2.82-2.83v-.07c0-1.56-1.27-2.83-2.82-2.83s-2.82,1.28-2.82,2.83v.07Z"/>
    <path class="cls-1" d="M188.33,328.91c0,1.56,1.27,2.83,2.82,2.83s2.82-1.28,2.82-2.83v-.07c0-1.56-1.27-2.83-2.82-2.83s-2.82,1.28-2.82,2.83v.07Z"/>
    <path class="cls-1" d="M188.33,338.48c0,1.56,1.27,2.83,2.82,2.83s2.82-1.28,2.82-2.83v-.07c0-1.56-1.27-2.83-2.82-2.83s-2.82,1.28-2.82,2.83v.07Z"/>
    <path class="cls-1" d="M178.92,328.91c0,1.56,1.27,2.83,2.83,2.83s2.83-1.28,2.83-2.83v-.07c0-1.56-1.27-2.83-2.83-2.83s-2.83,1.28-2.83,2.83v.07Z"/>
    <path class="cls-1" d="M169.5,328.91c0,1.56,1.27,2.83,2.82,2.83s2.82-1.28,2.82-2.83v-.07c0-1.56-1.27-2.83-2.82-2.83s-2.82,1.28-2.82,2.83v.07Z"/>
    <path class="cls-1" d="M122.42,328.91c0,1.56,1.27,2.83,2.82,2.83s2.82-1.28,2.82-2.83v-.07c0-1.56-1.27-2.83-2.82-2.83s-2.82,1.28-2.82,2.83v.07Z"/>
    <path class="cls-1" d="M301.33,319.34c0,1.56,1.27,2.83,2.83,2.83s2.83-1.28,2.83-2.83v-.07c0-1.56-1.27-2.83-2.83-2.83s-2.83,1.28-2.83,2.83v.07Z"/>
    <path class="cls-1" d="M282.5,319.34c0,1.56,1.27,2.83,2.83,2.83s2.83-1.28,2.83-2.83v-.07c0-1.56-1.27-2.83-2.83-2.83s-2.83,1.28-2.83,2.83v.07Z"/>
    <path class="cls-1" d="M273.08,319.34c0,1.56,1.27,2.83,2.82,2.83s2.82-1.28,2.82-2.83v-.07c0-1.56-1.27-2.83-2.82-2.83s-2.82,1.28-2.82,2.83v.07Z"/>
    <path class="cls-1" d="M263.67,319.34c0,1.56,1.27,2.83,2.82,2.83s2.82-1.28,2.82-2.83v-.07c0-1.56-1.27-2.83-2.82-2.83s-2.82,1.28-2.82,2.83v.07Z"/>
    <path class="cls-1" d="M254.25,319.34c0,1.56,1.27,2.83,2.82,2.83s2.82-1.28,2.82-2.83v-.07c0-1.56-1.27-2.83-2.82-2.83s-2.82,1.28-2.82,2.83v.07Z"/>
    <path class="cls-1" d="M244.83,319.34c0,1.56,1.27,2.83,2.82,2.83s2.82-1.28,2.82-2.83v-.07c0-1.56-1.27-2.83-2.82-2.83s-2.82,1.28-2.82,2.83v.07Z"/>
    <path class="cls-1" d="M244.83,328.91c0,1.56,1.27,2.83,2.82,2.83s2.82-1.28,2.82-2.83v-.07c0-1.56-1.27-2.83-2.82-2.83s-2.82,1.28-2.82,2.83v.07Z"/>
    <path class="cls-1" d="M235.42,319.34c0,1.56,1.27,2.83,2.83,2.83s2.83-1.28,2.83-2.83v-.07c0-1.56-1.27-2.83-2.83-2.83s-2.83,1.28-2.83,2.83v.07Z"/>
    <path class="cls-1" d="M226,319.34c0,1.56,1.27,2.83,2.82,2.83s2.82-1.28,2.82-2.83v-.07c0-1.56-1.27-2.83-2.82-2.83s-2.82,1.28-2.82,2.83v.07Z"/>
    <path class="cls-1" d="M216.58,319.34c0,1.56,1.27,2.83,2.82,2.83s2.82-1.28,2.82-2.83v-.07c0-1.56-1.27-2.83-2.82-2.83s-2.82,1.28-2.82,2.83v.07Z"/>
    <path class="cls-1" d="M207.17,319.34c0,1.56,1.27,2.83,2.83,2.83s2.83-1.28,2.83-2.83v-.07c0-1.56-1.27-2.83-2.83-2.83s-2.83,1.28-2.83,2.83v.07Z"/>
    <path class="cls-1" d="M207.17,328.91c0,1.56,1.27,2.83,2.83,2.83s2.83-1.28,2.83-2.83v-.07c0-1.56-1.27-2.83-2.83-2.83s-2.83,1.28-2.83,2.83v.07Z"/>
    <path class="cls-1" d="M197.75,319.34c0,1.56,1.27,2.83,2.82,2.83s2.82-1.28,2.82-2.83v-.07c0-1.56-1.27-2.83-2.82-2.83s-2.82,1.28-2.82,2.83v.07Z"/>
    <path class="cls-1" d="M188.33,319.34c0,1.56,1.27,2.83,2.82,2.83s2.82-1.28,2.82-2.83v-.07c0-1.56-1.27-2.83-2.82-2.83s-2.82,1.28-2.82,2.83v.07Z"/>
    <path class="cls-1" d="M178.92,319.34c0,1.56,1.27,2.83,2.83,2.83s2.83-1.28,2.83-2.83v-.07c0-1.56-1.27-2.83-2.83-2.83s-2.83,1.28-2.83,2.83v.07Z"/>
    <path class="cls-1" d="M131.83,319.34c0,1.56,1.27,2.83,2.82,2.83s2.82-1.28,2.82-2.83v-.07c0-1.56-1.27-2.83-2.82-2.83s-2.82,1.28-2.82,2.83v.07Z"/>
    <path class="cls-1" d="M357.83,309.77c0,1.56,1.27,2.83,2.82,2.83s2.82-1.28,2.82-2.83v-.07c0-1.56-1.27-2.83-2.82-2.83s-2.82,1.28-2.82,2.83v.07Z"/>
    <path class="cls-1" d="M367.25,309.77c0,1.56,1.27,2.83,2.83,2.83s2.83-1.28,2.83-2.83v-.07c0-1.56-1.27-2.83-2.83-2.83s-2.83,1.28-2.83,2.83v.07Z"/>
    <path class="cls-1" d="M310.75,309.77c0,1.56,1.27,2.83,2.83,2.83s2.83-1.28,2.83-2.83v-.07c0-1.56-1.27-2.83-2.83-2.83s-2.83,1.28-2.83,2.83v.07Z"/>
    <path class="cls-1" d="M301.33,309.77c0,1.56,1.27,2.83,2.83,2.83s2.83-1.28,2.83-2.83v-.07c0-1.56-1.27-2.83-2.83-2.83s-2.83,1.28-2.83,2.83v.07Z"/>
    <path class="cls-1" d="M291.92,309.77c0,1.56,1.27,2.83,2.83,2.83s2.83-1.28,2.83-2.83v-.07c0-1.56-1.27-2.83-2.83-2.83s-2.83,1.28-2.83,2.83v.07Z"/>
    <path class="cls-1" d="M282.5,309.77c0,1.56,1.27,2.83,2.83,2.83s2.83-1.28,2.83-2.83v-.07c0-1.56-1.27-2.83-2.83-2.83s-2.83,1.28-2.83,2.83v.07Z"/>
    <path class="cls-1" d="M254.25,309.77c0,1.56,1.27,2.83,2.82,2.83s2.82-1.28,2.82-2.83v-.07c0-1.56-1.27-2.83-2.82-2.83s-2.82,1.28-2.82,2.83v.07Z"/>
    <path class="cls-1" d="M244.83,309.77c0,1.56,1.27,2.83,2.82,2.83s2.82-1.28,2.82-2.83v-.07c0-1.56-1.27-2.83-2.82-2.83s-2.82,1.28-2.82,2.83v.07Z"/>
    <path class="cls-1" d="M235.42,309.77c0,1.56,1.27,2.83,2.83,2.83s2.83-1.28,2.83-2.83v-.07c0-1.56-1.27-2.83-2.83-2.83s-2.83,1.28-2.83,2.83v.07Z"/>
    <path class="cls-1" d="M226,309.77c0,1.56,1.27,2.83,2.82,2.83s2.82-1.28,2.82-2.83v-.07c0-1.56-1.27-2.83-2.82-2.83s-2.82,1.28-2.82,2.83v.07Z"/>
    <path class="cls-1" d="M216.58,309.77c0,1.56,1.27,2.83,2.82,2.83s2.82-1.28,2.82-2.83v-.07c0-1.56-1.27-2.83-2.82-2.83s-2.82,1.28-2.82,2.83v.07Z"/>
    <path class="cls-1" d="M207.17,309.77c0,1.56,1.27,2.83,2.83,2.83s2.83-1.28,2.83-2.83v-.07c0-1.56-1.27-2.83-2.83-2.83s-2.83,1.28-2.83,2.83v.07Z"/>
    <path class="cls-1" d="M197.75,309.77c0,1.56,1.27,2.83,2.82,2.83s2.82-1.28,2.82-2.83v-.07c0-1.56-1.27-2.83-2.82-2.83s-2.82,1.28-2.82,2.83v.07Z"/>
    <path class="cls-1" d="M188.33,309.77c0,1.56,1.27,2.83,2.82,2.83s2.82-1.28,2.82-2.83v-.07c0-1.56-1.27-2.83-2.82-2.83s-2.82,1.28-2.82,2.83v.07Z"/>
    <path class="cls-1" d="M367.25,300.2c0,1.56,1.27,2.83,2.83,2.83s2.83-1.28,2.83-2.83v-.07c0-1.56-1.27-2.83-2.83-2.83s-2.83,1.28-2.83,2.83v.07Z"/>
    <path class="cls-1" d="M357.83,300.2c0,1.56,1.27,2.83,2.82,2.83s2.82-1.28,2.82-2.83v-.07c0-1.56-1.27-2.83-2.82-2.83s-2.82,1.28-2.82,2.83v.07Z"/>
    <path class="cls-1" d="M348.42,300.2c0,1.56,1.27,2.83,2.83,2.83s2.83-1.28,2.83-2.83v-.07c0-1.56-1.27-2.83-2.83-2.83s-2.83,1.28-2.83,2.83v.07Z"/>
    <path class="cls-1" d="M329.58,300.2c0,1.56,1.27,2.83,2.82,2.83s2.82-1.28,2.82-2.83v-.07c0-1.56-1.27-2.83-2.82-2.83s-2.82,1.28-2.82,2.83v.07Z"/>
    <path class="cls-1" d="M320.17,300.2c0,1.56,1.27,2.83,2.82,2.83s2.82-1.28,2.82-2.83v-.07c0-1.56-1.27-2.83-2.82-2.83s-2.82,1.28-2.82,2.83v.07Z"/>
    <path class="cls-1" d="M310.75,300.2c0,1.56,1.27,2.83,2.83,2.83s2.83-1.28,2.83-2.83v-.07c0-1.56-1.27-2.83-2.83-2.83s-2.83,1.28-2.83,2.83v.07Z"/>
    <path class="cls-1" d="M301.33,300.2c0,1.56,1.27,2.83,2.83,2.83s2.83-1.28,2.83-2.83v-.07c0-1.56-1.27-2.83-2.83-2.83s-2.83,1.28-2.83,2.83v.07Z"/>
    <path class="cls-1" d="M291.92,300.2c0,1.56,1.27,2.83,2.83,2.83s2.83-1.28,2.83-2.83v-.07c0-1.56-1.27-2.83-2.83-2.83s-2.83,1.28-2.83,2.83v.07Z"/>
    <path class="cls-1" d="M282.5,300.2c0,1.56,1.27,2.83,2.83,2.83s2.83-1.28,2.83-2.83v-.07c0-1.56-1.27-2.83-2.83-2.83s-2.83,1.28-2.83,2.83v.07Z"/>
    <path class="cls-1" d="M273.08,300.2c0,1.56,1.27,2.83,2.82,2.83s2.82-1.28,2.82-2.83v-.07c0-1.56-1.27-2.83-2.82-2.83s-2.82,1.28-2.82,2.83v.07Z"/>
    <path class="cls-1" d="M263.67,300.2c0,1.56,1.27,2.83,2.82,2.83s2.82-1.28,2.82-2.83v-.07c0-1.56-1.27-2.83-2.82-2.83s-2.82,1.28-2.82,2.83v.07Z"/>
    <path class="cls-1" d="M263.67,309.77c0,1.56,1.27,2.83,2.82,2.83s2.82-1.28,2.82-2.83v-.07c0-1.56-1.27-2.83-2.82-2.83s-2.82,1.28-2.82,2.83v.07Z"/>
    <path class="cls-1" d="M254.25,300.2c0,1.56,1.27,2.83,2.82,2.83s2.82-1.28,2.82-2.83v-.07c0-1.56-1.27-2.83-2.82-2.83s-2.82,1.28-2.82,2.83v.07Z"/>
    <path class="cls-1" d="M244.83,300.2c0,1.56,1.27,2.83,2.82,2.83s2.82-1.28,2.82-2.83v-.07c0-1.56-1.27-2.83-2.82-2.83s-2.82,1.28-2.82,2.83v.07Z"/>
    <path class="cls-1" d="M235.42,300.2c0,1.56,1.27,2.83,2.83,2.83s2.83-1.28,2.83-2.83v-.07c0-1.56-1.27-2.83-2.83-2.83s-2.83,1.28-2.83,2.83v.07Z"/>
    <path class="cls-1" d="M226,300.2c0,1.56,1.27,2.83,2.82,2.83s2.82-1.28,2.82-2.83v-.07c0-1.56-1.27-2.83-2.82-2.83s-2.82,1.28-2.82,2.83v.07Z"/>
    <path class="cls-1" d="M216.58,300.2c0,1.56,1.27,2.83,2.82,2.83s2.82-1.28,2.82-2.83v-.07c0-1.56-1.27-2.83-2.82-2.83s-2.82,1.28-2.82,2.83v.07Z"/>
    <path class="cls-1" d="M207.17,300.2c0,1.56,1.27,2.83,2.83,2.83s2.83-1.28,2.83-2.83v-.07c0-1.56-1.27-2.83-2.83-2.83s-2.83,1.28-2.83,2.83v.07Z"/>
    <path class="cls-1" d="M197.75,300.2c0,1.56,1.27,2.83,2.82,2.83s2.82-1.28,2.82-2.83v-.07c0-1.56-1.27-2.83-2.82-2.83s-2.82,1.28-2.82,2.83v.07Z"/>
    <path class="cls-1" d="M376.67,290.62c0,1.56,1.27,2.83,2.83,2.83s2.83-1.28,2.83-2.83v-.07c0-1.56-1.27-2.83-2.83-2.83s-2.83,1.28-2.83,2.83v.07Z"/>
    <path class="cls-1" d="M367.25,290.62c0,1.56,1.27,2.83,2.83,2.83s2.83-1.28,2.83-2.83v-.07c0-1.56-1.27-2.83-2.83-2.83s-2.83,1.28-2.83,2.83v.07Z"/>
    <path class="cls-1" d="M357.83,290.62c0,1.56,1.27,2.83,2.82,2.83s2.82-1.28,2.82-2.83v-.07c0-1.56-1.27-2.83-2.82-2.83s-2.82,1.28-2.82,2.83v.07Z"/>
    <path class="cls-1" d="M348.42,290.62c0,1.56,1.27,2.83,2.83,2.83s2.83-1.28,2.83-2.83v-.07c0-1.56-1.27-2.83-2.83-2.83s-2.83,1.28-2.83,2.83v.07Z"/>
    <path class="cls-1" d="M339,290.62c0,1.56,1.27,2.83,2.83,2.83s2.83-1.28,2.83-2.83v-.07c0-1.56-1.27-2.83-2.83-2.83s-2.83,1.28-2.83,2.83v.07Z"/>
    <path class="cls-1" d="M329.58,290.62c0,1.56,1.27,2.83,2.82,2.83s2.82-1.28,2.82-2.83v-.07c0-1.56-1.27-2.83-2.82-2.83s-2.82,1.28-2.82,2.83v.07Z"/>
    <path class="cls-1" d="M320.17,290.62c0,1.56,1.27,2.83,2.82,2.83s2.82-1.28,2.82-2.83v-.07c0-1.56-1.27-2.83-2.82-2.83s-2.82,1.28-2.82,2.83v.07Z"/>
    <path class="cls-1" d="M310.75,290.62c0,1.56,1.27,2.83,2.83,2.83s2.83-1.28,2.83-2.83v-.07c0-1.56-1.27-2.83-2.83-2.83s-2.83,1.28-2.83,2.83v.07Z"/>
    <path class="cls-1" d="M301.33,290.62c0,1.56,1.27,2.83,2.83,2.83s2.83-1.28,2.83-2.83v-.07c0-1.56-1.27-2.83-2.83-2.83s-2.83,1.28-2.83,2.83v.07Z"/>
    <path class="cls-1" d="M291.92,290.62c0,1.56,1.27,2.83,2.83,2.83s2.83-1.28,2.83-2.83v-.07c0-1.56-1.27-2.83-2.83-2.83s-2.83,1.28-2.83,2.83v.07Z"/>
    <path class="cls-1" d="M282.5,290.62c0,1.56,1.27,2.83,2.83,2.83s2.83-1.28,2.83-2.83v-.07c0-1.56-1.27-2.83-2.83-2.83s-2.83,1.28-2.83,2.83v.07Z"/>
    <path class="cls-1" d="M273.08,290.62c0,1.56,1.27,2.83,2.82,2.83s2.82-1.28,2.82-2.83v-.07c0-1.56-1.27-2.83-2.82-2.83s-2.82,1.28-2.82,2.83v.07Z"/>
    <path class="cls-1" d="M254.25,290.62c0,1.56,1.27,2.83,2.82,2.83s2.82-1.28,2.82-2.83v-.07c0-1.56-1.27-2.83-2.82-2.83s-2.82,1.28-2.82,2.83v.07Z"/>
    <path class="cls-1" d="M244.83,290.62c0,1.56,1.27,2.83,2.82,2.83s2.82-1.28,2.82-2.83v-.07c0-1.56-1.27-2.83-2.82-2.83s-2.82,1.28-2.82,2.83v.07Z"/>
    <path class="cls-1" d="M235.42,290.62c0,1.56,1.27,2.83,2.83,2.83s2.83-1.28,2.83-2.83v-.07c0-1.56-1.27-2.83-2.83-2.83s-2.83,1.28-2.83,2.83v.07Z"/>
    <path class="cls-1" d="M207.17,290.62c0,1.56,1.27,2.83,2.83,2.83s2.83-1.28,2.83-2.83v-.07c0-1.56-1.27-2.83-2.83-2.83s-2.83,1.28-2.83,2.83v.07Z"/>
    <path class="cls-1" d="M367.25,281.05c0,1.56,1.27,2.83,2.83,2.83s2.83-1.28,2.83-2.83v-.07c0-1.56-1.27-2.83-2.83-2.83s-2.83,1.28-2.83,2.83v.07Z"/>
    <path class="cls-1" d="M357.83,281.05c0,1.56,1.27,2.83,2.82,2.83s2.82-1.28,2.82-2.83v-.07c0-1.56-1.27-2.83-2.82-2.83s-2.82,1.28-2.82,2.83v.07Z"/>
    <path class="cls-1" d="M348.42,281.05c0,1.56,1.27,2.83,2.83,2.83s2.83-1.28,2.83-2.83v-.07c0-1.56-1.27-2.83-2.83-2.83s-2.83,1.28-2.83,2.83v.07Z"/>
    <path class="cls-1" d="M339,281.05c0,1.56,1.27,2.83,2.83,2.83s2.83-1.28,2.83-2.83v-.07c0-1.56-1.27-2.83-2.83-2.83s-2.83,1.28-2.83,2.83v.07Z"/>
    <path class="cls-1" d="M329.58,281.05c0,1.56,1.27,2.83,2.82,2.83s2.82-1.28,2.82-2.83v-.07c0-1.56-1.27-2.83-2.82-2.83s-2.82,1.28-2.82,2.83v.07Z"/>
    <path class="cls-1" d="M320.17,281.05c0,1.56,1.27,2.83,2.82,2.83s2.82-1.28,2.82-2.83v-.07c0-1.56-1.27-2.83-2.82-2.83s-2.82,1.28-2.82,2.83v.07Z"/>
    <path class="cls-1" d="M310.75,281.05c0,1.56,1.27,2.83,2.83,2.83s2.83-1.28,2.83-2.83v-.07c0-1.56-1.27-2.83-2.83-2.83s-2.83,1.28-2.83,2.83v.07Z"/>
    <path class="cls-1" d="M301.33,281.05c0,1.56,1.27,2.83,2.83,2.83s2.83-1.28,2.83-2.83v-.07c0-1.56-1.27-2.83-2.83-2.83s-2.83,1.28-2.83,2.83v.07Z"/>
    <path class="cls-1" d="M291.92,281.05c0,1.56,1.27,2.83,2.83,2.83s2.83-1.28,2.83-2.83v-.07c0-1.56-1.27-2.83-2.83-2.83s-2.83,1.28-2.83,2.83v.07Z"/>
    <path class="cls-1" d="M282.5,281.05c0,1.56,1.27,2.83,2.83,2.83s2.83-1.28,2.83-2.83v-.07c0-1.56-1.27-2.83-2.83-2.83s-2.83,1.28-2.83,2.83v.07Z"/>
    <path class="cls-1" d="M273.08,281.05c0,1.56,1.27,2.83,2.82,2.83s2.82-1.28,2.82-2.83v-.07c0-1.56-1.27-2.83-2.82-2.83s-2.82,1.28-2.82,2.83v.07Z"/>
    <path class="cls-1" d="M207.17,281.05c0,1.56,1.27,2.83,2.83,2.83s2.83-1.28,2.83-2.83v-.07c0-1.56-1.27-2.83-2.83-2.83s-2.83,1.28-2.83,2.83v.07Z"/>
    <path class="cls-1" d="M367.25,271.48c0,1.56,1.27,2.83,2.83,2.83s2.83-1.28,2.83-2.83v-.07c0-1.56-1.27-2.83-2.83-2.83s-2.83,1.28-2.83,2.83v.07Z"/>
    <path class="cls-1" d="M357.83,271.48c0,1.56,1.27,2.83,2.82,2.83s2.82-1.28,2.82-2.83v-.07c0-1.56-1.27-2.83-2.82-2.83s-2.82,1.28-2.82,2.83v.07Z"/>
    <path class="cls-1" d="M348.42,271.48c0,1.56,1.27,2.83,2.83,2.83s2.83-1.28,2.83-2.83v-.07c0-1.56-1.27-2.83-2.83-2.83s-2.83,1.28-2.83,2.83v.07Z"/>
    <path class="cls-1" d="M339,271.48c0,1.56,1.27,2.83,2.83,2.83s2.83-1.28,2.83-2.83v-.07c0-1.56-1.27-2.83-2.83-2.83s-2.83,1.28-2.83,2.83v.07Z"/>
    <path class="cls-1" d="M329.58,271.48c0,1.56,1.27,2.83,2.82,2.83s2.82-1.28,2.82-2.83v-.07c0-1.56-1.27-2.83-2.82-2.83s-2.82,1.28-2.82,2.83v.07Z"/>
    <path class="cls-1" d="M320.17,271.48c0,1.56,1.27,2.83,2.82,2.83s2.82-1.28,2.82-2.83v-.07c0-1.56-1.27-2.83-2.82-2.83s-2.82,1.28-2.82,2.83v.07Z"/>
    <path class="cls-1" d="M310.75,271.48c0,1.56,1.27,2.83,2.83,2.83s2.83-1.28,2.83-2.83v-.07c0-1.56-1.27-2.83-2.83-2.83s-2.83,1.28-2.83,2.83v.07Z"/>
    <path class="cls-1" d="M301.33,271.48c0,1.56,1.27,2.83,2.83,2.83s2.83-1.28,2.83-2.83v-.07c0-1.56-1.27-2.83-2.83-2.83s-2.83,1.28-2.83,2.83v.07Z"/>
    <path class="cls-1" d="M291.92,271.48c0,1.56,1.27,2.83,2.83,2.83s2.83-1.28,2.83-2.83v-.07c0-1.56-1.27-2.83-2.83-2.83s-2.83,1.28-2.83,2.83v.07Z"/>
    <path class="cls-1" d="M282.5,271.48c0,1.56,1.27,2.83,2.83,2.83s2.83-1.28,2.83-2.83v-.07c0-1.56-1.27-2.83-2.83-2.83s-2.83,1.28-2.83,2.83v.07Z"/>
    <path class="cls-1" d="M376.67,261.91c0,1.56,1.27,2.83,2.83,2.83s2.83-1.28,2.83-2.83v-.07c0-1.56-1.27-2.83-2.83-2.83s-2.83,1.28-2.83,2.83v.07Z"/>
    <path class="cls-1" d="M367.25,261.91c0,1.56,1.27,2.83,2.83,2.83s2.83-1.28,2.83-2.83v-.07c0-1.56-1.27-2.83-2.83-2.83s-2.83,1.28-2.83,2.83v.07Z"/>
    <path class="cls-1" d="M357.83,261.91c0,1.56,1.27,2.83,2.82,2.83s2.82-1.28,2.82-2.83v-.07c0-1.56-1.27-2.83-2.82-2.83s-2.82,1.28-2.82,2.83v.07Z"/>
    <path class="cls-1" d="M348.42,261.91c0,1.56,1.27,2.83,2.83,2.83s2.83-1.28,2.83-2.83v-.07c0-1.56-1.27-2.83-2.83-2.83s-2.83,1.28-2.83,2.83v.07Z"/>
    <path class="cls-1" d="M339,261.91c0,1.56,1.27,2.83,2.83,2.83s2.83-1.28,2.83-2.83v-.07c0-1.56-1.27-2.83-2.83-2.83s-2.83,1.28-2.83,2.83v.07Z"/>
    <path class="cls-1" d="M329.58,261.91c0,1.56,1.27,2.83,2.82,2.83s2.82-1.28,2.82-2.83v-.07c0-1.56-1.27-2.83-2.82-2.83s-2.82,1.28-2.82,2.83v.07Z"/>
    <path class="cls-1" d="M320.17,261.91c0,1.56,1.27,2.83,2.82,2.83s2.82-1.28,2.82-2.83v-.07c0-1.56-1.27-2.83-2.82-2.83s-2.82,1.28-2.82,2.83v.07Z"/>
    <path class="cls-1" d="M310.75,261.91c0,1.56,1.27,2.83,2.83,2.83s2.83-1.28,2.83-2.83v-.07c0-1.56-1.27-2.83-2.83-2.83s-2.83,1.28-2.83,2.83v.07Z"/>
    <path class="cls-1" d="M301.33,261.91c0,1.56,1.27,2.83,2.83,2.83s2.83-1.28,2.83-2.83v-.07c0-1.56-1.27-2.83-2.83-2.83s-2.83,1.28-2.83,2.83v.07Z"/>
    <path class="cls-1" d="M291.92,261.91c0,1.56,1.27,2.83,2.83,2.83s2.83-1.28,2.83-2.83v-.07c0-1.56-1.27-2.83-2.83-2.83s-2.83,1.28-2.83,2.83v.07Z"/>
    <path class="cls-1" d="M376.67,252.33c0,1.56,1.27,2.83,2.83,2.83s2.83-1.28,2.83-2.83v-.07c0-1.56-1.27-2.83-2.83-2.83s-2.83,1.28-2.83,2.83v.07Z"/>
    <path class="cls-1" d="M367.25,252.33c0,1.56,1.27,2.83,2.83,2.83s2.83-1.28,2.83-2.83v-.07c0-1.56-1.27-2.83-2.83-2.83s-2.83,1.28-2.83,2.83v.07Z"/>
    <path class="cls-1" d="M357.83,252.33c0,1.56,1.27,2.83,2.82,2.83s2.82-1.28,2.82-2.83v-.07c0-1.56-1.27-2.83-2.82-2.83s-2.82,1.28-2.82,2.83v.07Z"/>
    <path class="cls-1" d="M348.42,252.33c0,1.56,1.27,2.83,2.83,2.83s2.83-1.28,2.83-2.83v-.07c0-1.56-1.27-2.83-2.83-2.83s-2.83,1.28-2.83,2.83v.07Z"/>
    <path class="cls-1" d="M339,252.33c0,1.56,1.27,2.83,2.83,2.83s2.83-1.28,2.83-2.83v-.07c0-1.56-1.27-2.83-2.83-2.83s-2.83,1.28-2.83,2.83v.07Z"/>
    <path class="cls-1" d="M329.58,252.33c0,1.56,1.27,2.83,2.82,2.83s2.82-1.28,2.82-2.83v-.07c0-1.56-1.27-2.83-2.82-2.83s-2.82,1.28-2.82,2.83v.07Z"/>
    <path class="cls-1" d="M320.17,252.33c0,1.56,1.27,2.83,2.82,2.83s2.82-1.28,2.82-2.83v-.07c0-1.56-1.27-2.83-2.82-2.83s-2.82,1.28-2.82,2.83v.07Z"/>
    <path class="cls-1" d="M310.75,252.33c0,1.56,1.27,2.83,2.83,2.83s2.83-1.28,2.83-2.83v-.07c0-1.56-1.27-2.83-2.83-2.83s-2.83,1.28-2.83,2.83v.07Z"/>
    <path class="cls-1" d="M291.92,252.33c0,1.56,1.27,2.83,2.83,2.83s2.83-1.28,2.83-2.83v-.07c0-1.56-1.27-2.83-2.83-2.83s-2.83,1.28-2.83,2.83v.07Z"/>
    <path class="cls-1" d="M376.67,242.76c0,1.56,1.27,2.83,2.83,2.83s2.83-1.28,2.83-2.83v-.07c0-1.56-1.27-2.83-2.83-2.83s-2.83,1.28-2.83,2.83v.07Z"/>
    <path class="cls-1" d="M367.25,242.76c0,1.56,1.27,2.83,2.83,2.83s2.83-1.28,2.83-2.83v-.07c0-1.56-1.27-2.83-2.83-2.83s-2.83,1.28-2.83,2.83v.07Z"/>
    <path class="cls-1" d="M357.83,242.76c0,1.56,1.27,2.83,2.82,2.83s2.82-1.28,2.82-2.83v-.07c0-1.56-1.27-2.83-2.82-2.83s-2.82,1.28-2.82,2.83v.07Z"/>
    <path class="cls-1" d="M348.42,242.76c0,1.56,1.27,2.83,2.83,2.83s2.83-1.28,2.83-2.83v-.07c0-1.56-1.27-2.83-2.83-2.83s-2.83,1.28-2.83,2.83v.07Z"/>
    <path class="cls-1" d="M339,242.76c0,1.56,1.27,2.83,2.83,2.83s2.83-1.28,2.83-2.83v-.07c0-1.56-1.27-2.83-2.83-2.83s-2.83,1.28-2.83,2.83v.07Z"/>
    <path class="cls-1" d="M329.58,242.76c0,1.56,1.27,2.83,2.82,2.83s2.82-1.28,2.82-2.83v-.07c0-1.56-1.27-2.83-2.82-2.83s-2.82,1.28-2.82,2.83v.07Z"/>
    <path class="cls-1" d="M301.33,242.76c0,1.56,1.27,2.83,2.83,2.83s2.83-1.28,2.83-2.83v-.07c0-1.56-1.27-2.83-2.83-2.83s-2.83,1.28-2.83,2.83v.07Z"/>
    <path class="cls-1" d="M291.92,242.76c0,1.56,1.27,2.83,2.83,2.83s2.83-1.28,2.83-2.83v-.07c0-1.56-1.27-2.83-2.83-2.83s-2.83,1.28-2.83,2.83v.07Z"/>
    <path class="cls-1" d="M376.67,233.19c0,1.56,1.27,2.83,2.83,2.83s2.83-1.28,2.83-2.83v-.07c0-1.56-1.27-2.83-2.83-2.83s-2.83,1.28-2.83,2.83v.07Z"/>
    <path class="cls-1" d="M367.25,233.19c0,1.56,1.27,2.83,2.83,2.83s2.83-1.28,2.83-2.83v-.07c0-1.56-1.27-2.83-2.83-2.83s-2.83,1.28-2.83,2.83v.07Z"/>
    <path class="cls-1" d="M357.83,233.19c0,1.56,1.27,2.83,2.82,2.83s2.82-1.28,2.82-2.83v-.07c0-1.56-1.27-2.83-2.82-2.83s-2.82,1.28-2.82,2.83v.07Z"/>
    <path class="cls-1" d="M348.42,233.19c0,1.56,1.27,2.83,2.83,2.83s2.83-1.28,2.83-2.83v-.07c0-1.56-1.27-2.83-2.83-2.83s-2.83,1.28-2.83,2.83v.07Z"/>
    <path class="cls-1" d="M339,233.19c0,1.56,1.27,2.83,2.83,2.83s2.83-1.28,2.83-2.83v-.07c0-1.56-1.27-2.83-2.83-2.83s-2.83,1.28-2.83,2.83v.07Z"/>
    <path class="cls-1" d="M320.17,233.19c0,1.56,1.27,2.83,2.82,2.83s2.82-1.28,2.82-2.83v-.07c0-1.56-1.27-2.83-2.82-2.83s-2.82,1.28-2.82,2.83v.07Z"/>
    <path class="cls-1" d="M376.67,223.62c0,1.56,1.27,2.83,2.83,2.83s2.83-1.28,2.83-2.83v-.08c0-1.56-1.27-2.83-2.83-2.83s-2.83,1.28-2.83,2.83v.08Z"/>
    <path class="cls-1" d="M367.25,223.62c0,1.56,1.27,2.83,2.83,2.83s2.83-1.28,2.83-2.83v-.08c0-1.56-1.27-2.83-2.83-2.83s-2.83,1.28-2.83,2.83v.08Z"/>
    <path class="cls-1" d="M357.83,223.62c0,1.56,1.27,2.83,2.82,2.83s2.82-1.28,2.82-2.83v-.08c0-1.56-1.27-2.83-2.82-2.83s-2.82,1.28-2.82,2.83v.08Z"/>
    <path class="cls-1" d="M348.42,223.62c0,1.56,1.27,2.83,2.83,2.83s2.83-1.28,2.83-2.83v-.08c0-1.56-1.27-2.83-2.83-2.83s-2.83,1.28-2.83,2.83v.08Z"/>
    <path class="cls-1" d="M329.58,223.62c0,1.56,1.27,2.83,2.82,2.83s2.82-1.28,2.82-2.83v-.08c0-1.56-1.27-2.83-2.82-2.83s-2.82,1.28-2.82,2.83v.08Z"/>
    <path class="cls-1" d="M320.17,223.62c0,1.56,1.27,2.83,2.82,2.83s2.82-1.28,2.82-2.83v-.08c0-1.56-1.27-2.83-2.82-2.83s-2.82,1.28-2.82,2.83v.08Z"/>
    <path class="cls-1" d="M386.08,214.05c0,1.56,1.27,2.83,2.83,2.83s2.83-1.28,2.83-2.83v-.08c0-1.56-1.27-2.83-2.83-2.83s-2.83,1.28-2.83,2.83v.08Z"/>
    <path class="cls-1" d="M376.67,214.05c0,1.56,1.27,2.83,2.83,2.83s2.83-1.28,2.83-2.83v-.08c0-1.56-1.27-2.83-2.83-2.83s-2.83,1.28-2.83,2.83v.08Z"/>
    <path class="cls-1" d="M367.25,214.05c0,1.56,1.27,2.83,2.83,2.83s2.83-1.28,2.83-2.83v-.08c0-1.56-1.27-2.83-2.83-2.83s-2.83,1.28-2.83,2.83v.08Z"/>
    <path class="cls-1" d="M357.83,214.05c0,1.56,1.27,2.83,2.82,2.83s2.82-1.28,2.82-2.83v-.08c0-1.56-1.27-2.83-2.82-2.83s-2.82,1.28-2.82,2.83v.08Z"/>
    <path class="cls-1" d="M348.42,214.05c0,1.56,1.27,2.83,2.83,2.83s2.83-1.28,2.83-2.83v-.08c0-1.56-1.27-2.83-2.83-2.83s-2.83,1.28-2.83,2.83v.08Z"/>
    <path class="cls-1" d="M395.5,204.47c0,1.56,1.27,2.83,2.83,2.83s2.83-1.28,2.83-2.83v-.07c0-1.56-1.27-2.83-2.83-2.83s-2.83,1.28-2.83,2.83v.07Z"/>
    <path class="cls-1" d="M386.08,204.47c0,1.56,1.27,2.83,2.83,2.83s2.83-1.28,2.83-2.83v-.07c0-1.56-1.27-2.83-2.83-2.83s-2.83,1.28-2.83,2.83v.07Z"/>
    <path class="cls-1" d="M376.67,204.47c0,1.56,1.27,2.83,2.83,2.83s2.83-1.28,2.83-2.83v-.07c0-1.56-1.27-2.83-2.83-2.83s-2.83,1.28-2.83,2.83v.07Z"/>
    <path class="cls-1" d="M367.25,204.47c0,1.56,1.27,2.83,2.83,2.83s2.83-1.28,2.83-2.83v-.07c0-1.56-1.27-2.83-2.83-2.83s-2.83,1.28-2.83,2.83v.07Z"/>
    <path class="cls-1" d="M357.83,204.47c0,1.56,1.27,2.83,2.82,2.83s2.82-1.28,2.82-2.83v-.07c0-1.56-1.27-2.83-2.82-2.83s-2.82,1.28-2.82,2.83v.07Z"/>
    <path class="cls-1" d="M395.5,194.9c0,1.56,1.27,2.83,2.83,2.83s2.83-1.28,2.83-2.83v-.07c0-1.56-1.27-2.83-2.83-2.83s-2.83,1.28-2.83,2.83v.07Z"/>
    <path class="cls-1" d="M386.08,194.9c0,1.56,1.27,2.83,2.83,2.83s2.83-1.28,2.83-2.83v-.07c0-1.56-1.27-2.83-2.83-2.83s-2.83,1.28-2.83,2.83v.07Z"/>
    <path class="cls-1" d="M376.67,194.9c0,1.56,1.27,2.83,2.83,2.83s2.83-1.28,2.83-2.83v-.07c0-1.56-1.27-2.83-2.83-2.83s-2.83,1.28-2.83,2.83v.07Z"/>
    <path class="cls-1" d="M367.25,194.9c0,1.56,1.27,2.83,2.83,2.83s2.83-1.28,2.83-2.83v-.07c0-1.56-1.27-2.83-2.83-2.83s-2.83,1.28-2.83,2.83v.07Z"/>
    <path class="cls-1" d="M357.83,194.9c0,1.56,1.27,2.83,2.82,2.83s2.82-1.28,2.82-2.83v-.07c0-1.56-1.27-2.83-2.82-2.83s-2.82,1.28-2.82,2.83v.07Z"/>
    <path class="cls-1" d="M348.42,194.9c0,1.56,1.27,2.83,2.83,2.83s2.83-1.28,2.83-2.83v-.07c0-1.56-1.27-2.83-2.83-2.83s-2.83,1.28-2.83,2.83v.07Z"/>
    <path class="cls-1" d="M404.92,185.33c0,1.56,1.27,2.83,2.82,2.83s2.82-1.28,2.82-2.83v-.07c0-1.56-1.27-2.83-2.82-2.83s-2.82,1.28-2.82,2.83v.07Z"/>
    <path class="cls-1" d="M395.5,185.33c0,1.56,1.27,2.83,2.83,2.83s2.83-1.28,2.83-2.83v-.07c0-1.56-1.27-2.83-2.83-2.83s-2.83,1.28-2.83,2.83v.07Z"/>
    <path class="cls-1" d="M386.08,185.33c0,1.56,1.27,2.83,2.83,2.83s2.83-1.28,2.83-2.83v-.07c0-1.56-1.27-2.83-2.83-2.83s-2.83,1.28-2.83,2.83v.07Z"/>
    <path class="cls-1" d="M376.67,185.33c0,1.56,1.27,2.83,2.83,2.83s2.83-1.28,2.83-2.83v-.07c0-1.56-1.27-2.83-2.83-2.83s-2.83,1.28-2.83,2.83v.07Z"/>
    <path class="cls-1" d="M367.25,185.33c0,1.56,1.27,2.83,2.83,2.83s2.83-1.28,2.83-2.83v-.07c0-1.56-1.27-2.83-2.83-2.83s-2.83,1.28-2.83,2.83v.07Z"/>
    <path class="cls-1" d="M357.83,185.33c0,1.56,1.27,2.83,2.82,2.83s2.82-1.28,2.82-2.83v-.07c0-1.56-1.27-2.83-2.82-2.83s-2.82,1.28-2.82,2.83v.07Z"/>
    <path class="cls-1" d="M395.5,175.76c0,1.56,1.27,2.83,2.83,2.83s2.83-1.28,2.83-2.83v-.08c0-1.56-1.27-2.83-2.83-2.83s-2.83,1.28-2.83,2.83v.08Z"/>
    <path class="cls-1" d="M386.08,175.76c0,1.56,1.27,2.83,2.83,2.83s2.83-1.28,2.83-2.83v-.08c0-1.56-1.27-2.83-2.83-2.83s-2.83,1.28-2.83,2.83v.08Z"/>
    <path class="cls-1" d="M376.67,175.76c0,1.56,1.27,2.83,2.83,2.83s2.83-1.28,2.83-2.83v-.08c0-1.56-1.27-2.83-2.83-2.83s-2.83,1.28-2.83,2.83v.08Z"/>
    <path class="cls-1" d="M367.25,175.76c0,1.56,1.27,2.83,2.83,2.83s2.83-1.28,2.83-2.83v-.08c0-1.56-1.27-2.83-2.83-2.83s-2.83,1.28-2.83,2.83v.08Z"/>
    <path class="cls-1" d="M357.83,175.76c0,1.56,1.27,2.83,2.82,2.83s2.82-1.28,2.82-2.83v-.08c0-1.56-1.27-2.83-2.82-2.83s-2.82,1.28-2.82,2.83v.08Z"/>
    <path class="cls-1" d="M395.5,166.18c0,1.56,1.27,2.83,2.83,2.83s2.83-1.28,2.83-2.83v-.08c0-1.56-1.27-2.83-2.83-2.83s-2.83,1.28-2.83,2.83v.08Z"/>
    <path class="cls-1" d="M386.08,166.18c0,1.56,1.27,2.83,2.83,2.83s2.83-1.28,2.83-2.83v-.08c0-1.56-1.27-2.83-2.83-2.83s-2.83,1.28-2.83,2.83v.08Z"/>
    <path class="cls-1" d="M376.67,166.18c0,1.56,1.27,2.83,2.83,2.83s2.83-1.28,2.83-2.83v-.08c0-1.56-1.27-2.83-2.83-2.83s-2.83,1.28-2.83,2.83v.08Z"/>
    <path class="cls-1" d="M367.25,166.18c0,1.56,1.27,2.83,2.83,2.83s2.83-1.28,2.83-2.83v-.08c0-1.56-1.27-2.83-2.83-2.83s-2.83,1.28-2.83,2.83v.08Z"/>
    <path class="cls-1" d="M357.83,166.18c0,1.56,1.27,2.83,2.82,2.83s2.82-1.28,2.82-2.83v-.08c0-1.56-1.27-2.83-2.82-2.83s-2.82,1.28-2.82,2.83v.08Z"/>
    <path class="cls-1" d="M395.5,156.61c0,1.56,1.27,2.83,2.83,2.83s2.83-1.28,2.83-2.83v-.07c0-1.56-1.27-2.83-2.83-2.83s-2.83,1.28-2.83,2.83v.07Z"/>
    <path class="cls-1" d="M386.08,156.61c0,1.56,1.27,2.83,2.83,2.83s2.83-1.28,2.83-2.83v-.07c0-1.56-1.27-2.83-2.83-2.83s-2.83,1.28-2.83,2.83v.07Z"/>
    <path class="cls-1" d="M376.67,156.61c0,1.56,1.27,2.83,2.83,2.83s2.83-1.28,2.83-2.83v-.07c0-1.56-1.27-2.83-2.83-2.83s-2.83,1.28-2.83,2.83v.07Z"/>
    <path class="cls-1" d="M367.25,156.61c0,1.56,1.27,2.83,2.83,2.83s2.83-1.28,2.83-2.83v-.07c0-1.56-1.27-2.83-2.83-2.83s-2.83,1.28-2.83,2.83v.07Z"/>
    <path class="cls-1" d="M357.83,156.61c0,1.56,1.27,2.83,2.82,2.83s2.82-1.28,2.82-2.83v-.07c0-1.56-1.27-2.83-2.82-2.83s-2.82,1.28-2.82,2.83v.07Z"/>
    <path class="cls-1" d="M386.08,147.04c0,1.56,1.27,2.83,2.83,2.83s2.83-1.28,2.83-2.83v-.07c0-1.56-1.27-2.83-2.83-2.83s-2.83,1.28-2.83,2.83v.07Z"/>
    <path class="cls-1" d="M376.67,147.04c0,1.56,1.27,2.83,2.83,2.83s2.83-1.28,2.83-2.83v-.07c0-1.56-1.27-2.83-2.83-2.83s-2.83,1.28-2.83,2.83v.07Z"/>
    <path class="cls-1" d="M367.25,147.04c0,1.56,1.27,2.83,2.83,2.83s2.83-1.28,2.83-2.83v-.07c0-1.56-1.27-2.83-2.83-2.83s-2.83,1.28-2.83,2.83v.07Z"/>
    <path class="cls-1" d="M386.08,137.47c0,1.56,1.27,2.83,2.83,2.83s2.83-1.28,2.83-2.83v-.08c0-1.56-1.27-2.83-2.83-2.83s-2.83,1.28-2.83,2.83v.08Z"/>
    <path class="cls-1" d="M376.67,137.47c0,1.56,1.27,2.83,2.83,2.83s2.83-1.28,2.83-2.83v-.08c0-1.56-1.27-2.83-2.83-2.83s-2.83,1.28-2.83,2.83v.08Z"/>
    <path class="cls-1" d="M367.25,137.47c0,1.56,1.27,2.83,2.83,2.83s2.83-1.28,2.83-2.83v-.08c0-1.56-1.27-2.83-2.83-2.83s-2.83,1.28-2.83,2.83v.08Z"/>
    <path class="cls-1" d="M367.25,127.89c0,1.56,1.27,2.83,2.83,2.83s2.83-1.28,2.83-2.83v-.08c0-1.56-1.27-2.83-2.83-2.83s-2.83,1.28-2.83,2.83v.08Z"/>
    <path class="cls-1" d="M357.83,127.89c0,1.56,1.27,2.83,2.82,2.83s2.82-1.28,2.82-2.83v-.08c0-1.56-1.27-2.83-2.82-2.83s-2.82,1.28-2.82,2.83v.08Z"/>
    <path class="cls-1" d="M386.08,127.89c0,1.56,1.27,2.83,2.83,2.83s2.83-1.28,2.83-2.83v-.08c0-1.56-1.27-2.83-2.83-2.83s-2.83,1.28-2.83,2.83v.08Z"/>
    <path class="cls-1" d="M423.75,108.75c0,1.56,1.27,2.83,2.82,2.83s2.82-1.28,2.82-2.83v-.07c0-1.56-1.27-2.83-2.82-2.83s-2.82,1.28-2.82,2.83v.07Z"/>
    <path class="cls-1" d="M414.33,108.75c0,1.56,1.27,2.83,2.82,2.83s2.82-1.28,2.82-2.83v-.07c0-1.56-1.27-2.83-2.82-2.83s-2.82,1.28-2.82,2.83v.07Z"/>
    <path class="cls-1" d="M367.25,108.75c0,1.56,1.27,2.83,2.83,2.83s2.83-1.28,2.83-2.83v-.07c0-1.56-1.27-2.83-2.83-2.83s-2.83,1.28-2.83,2.83v.07Z"/>
    <path class="cls-1" d="M357.83,108.75c0,1.56,1.27,2.83,2.82,2.83s2.82-1.28,2.82-2.83v-.07c0-1.56-1.27-2.83-2.82-2.83s-2.82,1.28-2.82,2.83v.07Z"/>
    <path class="cls-1" d="M348.42,108.75c0,1.56,1.27,2.83,2.83,2.83s2.83-1.28,2.83-2.83v-.07c0-1.56-1.27-2.83-2.83-2.83s-2.83,1.28-2.83,2.83v.07Z"/>
    <path class="cls-1" d="M433.17,99.18c0,1.56,1.27,2.83,2.82,2.83s2.82-1.28,2.82-2.83v-.07c0-1.56-1.27-2.83-2.82-2.83s-2.82,1.28-2.82,2.83v.07Z"/>
    <path class="cls-1" d="M423.75,99.18c0,1.56,1.27,2.83,2.82,2.83s2.82-1.28,2.82-2.83v-.07c0-1.56-1.27-2.83-2.82-2.83s-2.82,1.28-2.82,2.83v.07Z"/>
    <path class="cls-1" d="M414.33,99.18c0,1.56,1.27,2.83,2.82,2.83s2.82-1.28,2.82-2.83v-.07c0-1.56-1.27-2.83-2.82-2.83s-2.82,1.28-2.82,2.83v.07Z"/>
    <path class="cls-1" d="M404.92,99.18c0,1.56,1.27,2.83,2.82,2.83s2.82-1.28,2.82-2.83v-.07c0-1.56-1.27-2.83-2.82-2.83s-2.82,1.28-2.82,2.83v.07Z"/>
    <path class="cls-1" d="M376.67,99.18c0,1.56,1.27,2.83,2.83,2.83s2.83-1.28,2.83-2.83v-.07c0-1.56-1.27-2.83-2.83-2.83s-2.83,1.28-2.83,2.83v.07Z"/>
    <path class="cls-1" d="M367.25,99.18c0,1.56,1.27,2.83,2.83,2.83s2.83-1.28,2.83-2.83v-.07c0-1.56-1.27-2.83-2.83-2.83s-2.83,1.28-2.83,2.83v.07Z"/>
    <path class="cls-1" d="M357.83,99.18c0,1.56,1.27,2.83,2.82,2.83s2.82-1.28,2.82-2.83v-.07c0-1.56-1.27-2.83-2.82-2.83s-2.82,1.28-2.82,2.83v.07Z"/>
    <path class="cls-1" d="M461.42,89.61c0,1.56,1.27,2.83,2.82,2.83s2.82-1.28,2.82-2.83v-.08c0-1.56-1.27-2.83-2.82-2.83s-2.82,1.28-2.82,2.83v.08Z"/>
    <path class="cls-1" d="M442.58,89.61c0,1.56,1.27,2.83,2.83,2.83s2.83-1.28,2.83-2.83v-.08c0-1.56-1.27-2.83-2.83-2.83s-2.83,1.28-2.83,2.83v.08Z"/>
    <path class="cls-1" d="M433.17,89.61c0,1.56,1.27,2.83,2.82,2.83s2.82-1.28,2.82-2.83v-.08c0-1.56-1.27-2.83-2.82-2.83s-2.82,1.28-2.82,2.83v.08Z"/>
    <path class="cls-1" d="M423.75,89.61c0,1.56,1.27,2.83,2.82,2.83s2.82-1.28,2.82-2.83v-.08c0-1.56-1.27-2.83-2.82-2.83s-2.82,1.28-2.82,2.83v.08Z"/>
    <path class="cls-1" d="M414.33,89.61c0,1.56,1.27,2.83,2.82,2.83s2.82-1.28,2.82-2.83v-.08c0-1.56-1.27-2.83-2.82-2.83s-2.82,1.28-2.82,2.83v.08Z"/>
    <path class="cls-1" d="M404.92,89.61c0,1.56,1.27,2.83,2.82,2.83s2.82-1.28,2.82-2.83v-.08c0-1.56-1.27-2.83-2.82-2.83s-2.82,1.28-2.82,2.83v.08Z"/>
    <path class="cls-1" d="M395.5,89.61c0,1.56,1.27,2.83,2.83,2.83s2.83-1.28,2.83-2.83v-.08c0-1.56-1.27-2.83-2.83-2.83s-2.83,1.28-2.83,2.83v.08Z"/>
    <path class="cls-1" d="M386.08,89.61c0,1.56,1.27,2.83,2.83,2.83s2.83-1.28,2.83-2.83v-.08c0-1.56-1.27-2.83-2.83-2.83s-2.83,1.28-2.83,2.83v.08Z"/>
    <path class="cls-1" d="M376.67,89.61c0,1.56,1.27,2.83,2.83,2.83s2.83-1.28,2.83-2.83v-.08c0-1.56-1.27-2.83-2.83-2.83s-2.83,1.28-2.83,2.83v.08Z"/>
    <path class="cls-1" d="M367.25,89.61c0,1.56,1.27,2.83,2.83,2.83s2.83-1.28,2.83-2.83v-.08c0-1.56-1.27-2.83-2.83-2.83s-2.83,1.28-2.83,2.83v.08Z"/>
    <path class="cls-1" d="M480.25,80.03c0,1.56,1.27,2.83,2.82,2.83s2.82-1.28,2.82-2.83v-.08c0-1.56-1.27-2.83-2.82-2.83s-2.82,1.28-2.82,2.83v.08Z"/>
    <path class="cls-1" d="M470.83,80.03c0,1.56,1.27,2.83,2.83,2.83s2.83-1.28,2.83-2.83v-.08c0-1.56-1.27-2.83-2.83-2.83s-2.83,1.28-2.83,2.83v.08Z"/>
    <path class="cls-1" d="M461.42,80.03c0,1.56,1.27,2.83,2.82,2.83s2.82-1.28,2.82-2.83v-.08c0-1.56-1.27-2.83-2.82-2.83s-2.82,1.28-2.82,2.83v.08Z"/>
    <path class="cls-1" d="M452,80.03c0,1.56,1.27,2.83,2.83,2.83s2.83-1.28,2.83-2.83v-.08c0-1.56-1.27-2.83-2.83-2.83s-2.83,1.28-2.83,2.83v.08Z"/>
    <path class="cls-1" d="M442.58,80.03c0,1.56,1.27,2.83,2.83,2.83s2.83-1.28,2.83-2.83v-.08c0-1.56-1.27-2.83-2.83-2.83s-2.83,1.28-2.83,2.83v.08Z"/>
    <path class="cls-1" d="M433.17,80.03c0,1.56,1.27,2.83,2.82,2.83s2.82-1.28,2.82-2.83v-.08c0-1.56-1.27-2.83-2.82-2.83s-2.82,1.28-2.82,2.83v.08Z"/>
    <path class="cls-1" d="M423.75,80.03c0,1.56,1.27,2.83,2.82,2.83s2.82-1.28,2.82-2.83v-.08c0-1.56-1.27-2.83-2.82-2.83s-2.82,1.28-2.82,2.83v.08Z"/>
    <path class="cls-1" d="M414.33,80.03c0,1.56,1.27,2.83,2.82,2.83s2.82-1.28,2.82-2.83v-.08c0-1.56-1.27-2.83-2.82-2.83s-2.82,1.28-2.82,2.83v.08Z"/>
    <path class="cls-1" d="M404.92,80.03c0,1.56,1.27,2.83,2.82,2.83s2.82-1.28,2.82-2.83v-.08c0-1.56-1.27-2.83-2.82-2.83s-2.82,1.28-2.82,2.83v.08Z"/>
    <path class="cls-1" d="M395.5,80.03c0,1.56,1.27,2.83,2.83,2.83s2.83-1.28,2.83-2.83v-.08c0-1.56-1.27-2.83-2.83-2.83s-2.83,1.28-2.83,2.83v.08Z"/>
    <path class="cls-1" d="M386.08,80.03c0,1.56,1.27,2.83,2.83,2.83s2.83-1.28,2.83-2.83v-.08c0-1.56-1.27-2.83-2.83-2.83s-2.83,1.28-2.83,2.83v.08Z"/>
    <path class="cls-1" d="M376.67,80.03c0,1.56,1.27,2.83,2.83,2.83s2.83-1.28,2.83-2.83v-.08c0-1.56-1.27-2.83-2.83-2.83s-2.83,1.28-2.83,2.83v.08Z"/>
    <path class="cls-1" d="M367.25,80.03c0,1.56,1.27,2.83,2.83,2.83s2.83-1.28,2.83-2.83v-.08c0-1.56-1.27-2.83-2.83-2.83s-2.83,1.28-2.83,2.83v.08Z"/>
    <path class="cls-1" d="M489.67,70.46c0,1.56,1.27,2.83,2.83,2.83s2.83-1.28,2.83-2.83v-.08c0-1.56-1.27-2.83-2.83-2.83s-2.83,1.28-2.83,2.83v.08Z"/>
    <path class="cls-1" d="M470.83,70.46c0,1.56,1.27,2.83,2.83,2.83s2.83-1.28,2.83-2.83v-.08c0-1.56-1.27-2.83-2.83-2.83s-2.83,1.28-2.83,2.83v.08Z"/>
    <path class="cls-1" d="M461.42,70.46c0,1.56,1.27,2.83,2.82,2.83s2.82-1.28,2.82-2.83v-.08c0-1.56-1.27-2.83-2.82-2.83s-2.82,1.28-2.82,2.83v.08Z"/>
    <path class="cls-1" d="M452,70.46c0,1.56,1.27,2.83,2.83,2.83s2.83-1.28,2.83-2.83v-.08c0-1.56-1.27-2.83-2.83-2.83s-2.83,1.28-2.83,2.83v.08Z"/>
    <path class="cls-1" d="M442.58,70.46c0,1.56,1.27,2.83,2.83,2.83s2.83-1.28,2.83-2.83v-.08c0-1.56-1.27-2.83-2.83-2.83s-2.83,1.28-2.83,2.83v.08Z"/>
    <path class="cls-1" d="M433.17,70.46c0,1.56,1.27,2.83,2.82,2.83s2.82-1.28,2.82-2.83v-.08c0-1.56-1.27-2.83-2.82-2.83s-2.82,1.28-2.82,2.83v.08Z"/>
    <path class="cls-1" d="M423.75,70.46c0,1.56,1.27,2.83,2.82,2.83s2.82-1.28,2.82-2.83v-.08c0-1.56-1.27-2.83-2.82-2.83s-2.82,1.28-2.82,2.83v.08Z"/>
    <path class="cls-1" d="M414.33,70.46c0,1.56,1.27,2.83,2.82,2.83s2.82-1.28,2.82-2.83v-.08c0-1.56-1.27-2.83-2.82-2.83s-2.82,1.28-2.82,2.83v.08Z"/>
    <path class="cls-1" d="M404.92,70.46c0,1.56,1.27,2.83,2.82,2.83s2.82-1.28,2.82-2.83v-.08c0-1.56-1.27-2.83-2.82-2.83s-2.82,1.28-2.82,2.83v.08Z"/>
    <path class="cls-1" d="M395.5,70.46c0,1.56,1.27,2.83,2.83,2.83s2.83-1.28,2.83-2.83v-.08c0-1.56-1.27-2.83-2.83-2.83s-2.83,1.28-2.83,2.83v.08Z"/>
    <path class="cls-1" d="M386.08,70.46c0,1.56,1.27,2.83,2.83,2.83s2.83-1.28,2.83-2.83v-.08c0-1.56-1.27-2.83-2.83-2.83s-2.83,1.28-2.83,2.83v.08Z"/>
    <path class="cls-1" d="M508.5,60.89c0,1.56,1.27,2.83,2.83,2.83s2.83-1.28,2.83-2.83v-.07c0-1.56-1.27-2.83-2.83-2.83s-2.83,1.28-2.83,2.83v.07Z"/>
    <path class="cls-1" d="M480.25,60.89c0,1.56,1.27,2.83,2.82,2.83s2.82-1.28,2.82-2.83v-.07c0-1.56-1.27-2.83-2.82-2.83s-2.82,1.28-2.82,2.83v.07Z"/>
    <path class="cls-1" d="M470.83,60.89c0,1.56,1.27,2.83,2.83,2.83s2.83-1.28,2.83-2.83v-.07c0-1.56-1.27-2.83-2.83-2.83s-2.83,1.28-2.83,2.83v.07Z"/>
    <path class="cls-1" d="M461.42,60.89c0,1.56,1.27,2.83,2.82,2.83s2.82-1.28,2.82-2.83v-.07c0-1.56-1.27-2.83-2.82-2.83s-2.82,1.28-2.82,2.83v.07Z"/>
    <path class="cls-1" d="M452,60.89c0,1.56,1.27,2.83,2.83,2.83s2.83-1.28,2.83-2.83v-.07c0-1.56-1.27-2.83-2.83-2.83s-2.83,1.28-2.83,2.83v.07Z"/>
    <path class="cls-1" d="M442.58,60.89c0,1.56,1.27,2.83,2.83,2.83s2.83-1.28,2.83-2.83v-.07c0-1.56-1.27-2.83-2.83-2.83s-2.83,1.28-2.83,2.83v.07Z"/>
    <path class="cls-1" d="M433.17,60.89c0,1.56,1.27,2.83,2.82,2.83s2.82-1.28,2.82-2.83v-.07c0-1.56-1.27-2.83-2.82-2.83s-2.82,1.28-2.82,2.83v.07Z"/>
    <path class="cls-1" d="M423.75,60.89c0,1.56,1.27,2.83,2.82,2.83s2.82-1.28,2.82-2.83v-.07c0-1.56-1.27-2.83-2.82-2.83s-2.82,1.28-2.82,2.83v.07Z"/>
    <path class="cls-1" d="M414.33,60.89c0,1.56,1.27,2.83,2.82,2.83s2.82-1.28,2.82-2.83v-.07c0-1.56-1.27-2.83-2.82-2.83s-2.82,1.28-2.82,2.83v.07Z"/>
    <path class="cls-1" d="M404.92,60.89c0,1.56,1.27,2.83,2.82,2.83s2.82-1.28,2.82-2.83v-.07c0-1.56-1.27-2.83-2.82-2.83s-2.82,1.28-2.82,2.83v.07Z"/>
    <path class="cls-1" d="M395.5,60.89c0,1.56,1.27,2.83,2.83,2.83s2.83-1.28,2.83-2.83v-.07c0-1.56-1.27-2.83-2.83-2.83s-2.83,1.28-2.83,2.83v.07Z"/>
    <path class="cls-1" d="M386.08,60.89c0,1.56,1.27,2.83,2.83,2.83s2.83-1.28,2.83-2.83v-.07c0-1.56-1.27-2.83-2.83-2.83s-2.83,1.28-2.83,2.83v.07Z"/>
    <path class="cls-1" d="M489.67,51.31c0,1.56,1.27,2.83,2.83,2.83s2.83-1.28,2.83-2.83v-.07c0-1.56-1.27-2.83-2.83-2.83s-2.83,1.28-2.83,2.83v.07Z"/>
    <path class="cls-1" d="M470.83,51.31c0,1.56,1.27,2.83,2.83,2.83s2.83-1.28,2.83-2.83v-.07c0-1.56-1.27-2.83-2.83-2.83s-2.83,1.28-2.83,2.83v.07Z"/>
    <path class="cls-1" d="M452,51.31c0,1.56,1.27,2.83,2.83,2.83s2.83-1.28,2.83-2.83v-.07c0-1.56-1.27-2.83-2.83-2.83s-2.83,1.28-2.83,2.83v.07Z"/>
    <path class="cls-1" d="M442.58,51.31c0,1.56,1.27,2.83,2.83,2.83s2.83-1.28,2.83-2.83v-.07c0-1.56-1.27-2.83-2.83-2.83s-2.83,1.28-2.83,2.83v.07Z"/>
    <path class="cls-1" d="M433.17,51.31c0,1.56,1.27,2.83,2.82,2.83s2.82-1.28,2.82-2.83v-.07c0-1.56-1.27-2.83-2.82-2.83s-2.82,1.28-2.82,2.83v.07Z"/>
    <path class="cls-1" d="M423.75,51.31c0,1.56,1.27,2.83,2.82,2.83s2.82-1.28,2.82-2.83v-.07c0-1.56-1.27-2.83-2.82-2.83s-2.82,1.28-2.82,2.83v.07Z"/>
    <path class="cls-1" d="M414.33,51.31c0,1.56,1.27,2.83,2.82,2.83s2.82-1.28,2.82-2.83v-.07c0-1.56-1.27-2.83-2.82-2.83s-2.82,1.28-2.82,2.83v.07Z"/>
    <path class="cls-1" d="M404.92,51.31c0,1.56,1.27,2.83,2.82,2.83s2.82-1.28,2.82-2.83v-.07c0-1.56-1.27-2.83-2.82-2.83s-2.82,1.28-2.82,2.83v.07Z"/>
    <path class="cls-1" d="M395.5,51.31c0,1.56,1.27,2.83,2.83,2.83s2.83-1.28,2.83-2.83v-.07c0-1.56-1.27-2.83-2.83-2.83s-2.83,1.28-2.83,2.83v.07Z"/>
    <path class="cls-1" d="M508.5,41.74c0,1.56,1.27,2.83,2.83,2.83s2.83-1.28,2.83-2.83v-.08c0-1.56-1.27-2.83-2.83-2.83s-2.83,1.28-2.83,2.83v.08Z"/>
    <path class="cls-1" d="M499.08,41.74c0,1.56,1.27,2.83,2.82,2.83s2.82-1.28,2.82-2.83v-.08c0-1.56-1.27-2.83-2.82-2.83s-2.82,1.28-2.82,2.83v.08Z"/>
    <path class="cls-1" d="M489.67,41.74c0,1.56,1.27,2.83,2.83,2.83s2.83-1.28,2.83-2.83v-.08c0-1.56-1.27-2.83-2.83-2.83s-2.83,1.28-2.83,2.83v.08Z"/>
    <path class="cls-1" d="M433.17,41.74c0,1.56,1.27,2.83,2.82,2.83s2.82-1.28,2.82-2.83v-.08c0-1.56-1.27-2.83-2.82-2.83s-2.82,1.28-2.82,2.83v.08Z"/>
    <path class="cls-1" d="M423.75,41.74c0,1.56,1.27,2.83,2.82,2.83s2.82-1.28,2.82-2.83v-.08c0-1.56-1.27-2.83-2.82-2.83s-2.82,1.28-2.82,2.83v.08Z"/>
    <path class="cls-1" d="M414.33,41.74c0,1.56,1.27,2.83,2.82,2.83s2.82-1.28,2.82-2.83v-.08c0-1.56-1.27-2.83-2.82-2.83s-2.82,1.28-2.82,2.83v.08Z"/>
    <path class="cls-1" d="M404.92,41.74c0,1.56,1.27,2.83,2.82,2.83s2.82-1.28,2.82-2.83v-.08c0-1.56-1.27-2.83-2.82-2.83s-2.82,1.28-2.82,2.83v.08Z"/>
    <path class="cls-1" d="M395.5,41.74c0,1.56,1.27,2.83,2.83,2.83s2.83-1.28,2.83-2.83v-.08c0-1.56-1.27-2.83-2.83-2.83s-2.83,1.28-2.83,2.83v.08Z"/>
    <path class="cls-1" d="M386.08,41.74c0,1.56,1.27,2.83,2.83,2.83s2.83-1.28,2.83-2.83v-.08c0-1.56-1.27-2.83-2.83-2.83s-2.83,1.28-2.83,2.83v.08Z"/>
    <path class="cls-1" d="M517.92,32.17c0,1.56,1.27,2.83,2.82,2.83s2.82-1.28,2.82-2.83v-.08c0-1.56-1.27-2.83-2.82-2.83s-2.82,1.28-2.82,2.83v.08Z"/>
    <path class="cls-1" d="M423.75,32.17c0,1.56,1.27,2.83,2.82,2.83s2.82-1.28,2.82-2.83v-.08c0-1.56-1.27-2.83-2.82-2.83s-2.82,1.28-2.82,2.83v.08Z"/>
    <path class="cls-1" d="M414.33,32.17c0,1.56,1.27,2.83,2.82,2.83s2.82-1.28,2.82-2.83v-.08c0-1.56-1.27-2.83-2.82-2.83s-2.82,1.28-2.82,2.83v.08Z"/>
    <path class="cls-1" d="M404.92,32.17c0,1.56,1.27,2.83,2.82,2.83s2.82-1.28,2.82-2.83v-.08c0-1.56-1.27-2.83-2.82-2.83s-2.82,1.28-2.82,2.83v.08Z"/>
    <path class="cls-1" d="M395.5,32.17c0,1.56,1.27,2.83,2.83,2.83s2.83-1.28,2.83-2.83v-.08c0-1.56-1.27-2.83-2.83-2.83s-2.83,1.28-2.83,2.83v.08Z"/>
    <path class="cls-1" d="M536.75,22.6c0,1.56,1.27,2.83,2.82,2.83s2.82-1.28,2.82-2.83v-.08c0-1.56-1.27-2.83-2.82-2.83s-2.82,1.28-2.82,2.83v.08Z"/>
    <path class="cls-1" d="M527.33,22.6c0,1.56,1.27,2.83,2.83,2.83s2.83-1.28,2.83-2.83v-.08c0-1.56-1.27-2.83-2.83-2.83s-2.83,1.28-2.83,2.83v.08Z"/>
    <path class="cls-1" d="M414.33,22.6c0,1.56,1.27,2.83,2.82,2.83s2.82-1.28,2.82-2.83v-.08c0-1.56-1.27-2.83-2.82-2.83s-2.82,1.28-2.82,2.83v.08Z"/>
    <path class="cls-1" d="M404.92,22.6c0,1.56,1.27,2.83,2.82,2.83s2.82-1.28,2.82-2.83v-.08c0-1.56-1.27-2.83-2.82-2.83s-2.82,1.28-2.82,2.83v.08Z"/>
    <path class="cls-1" d="M395.5,22.6c0,1.56,1.27,2.83,2.83,2.83s2.83-1.28,2.83-2.83v-.08c0-1.56-1.27-2.83-2.83-2.83s-2.83,1.28-2.83,2.83v.08Z"/>
    <path class="cls-1" d="M546.17,13.03c0,1.56,1.27,2.83,2.82,2.83s2.82-1.28,2.82-2.83v-.07c0-1.56-1.27-2.83-2.82-2.83s-2.82,1.28-2.82,2.83v.07Z"/>
    <path class="cls-1" d="M536.75,13.03c0,1.56,1.27,2.83,2.82,2.83s2.82-1.28,2.82-2.83v-.07c0-1.56-1.27-2.83-2.82-2.83s-2.82,1.28-2.82,2.83v.07Z"/>
    <path class="cls-1" d="M404.92,13.03c0,1.56,1.27,2.83,2.82,2.83s2.82-1.28,2.82-2.83v-.07c0-1.56-1.27-2.83-2.82-2.83s-2.82,1.28-2.82,2.83v.07Z"/>
    <path class="cls-1" d="M395.5,13.03c0,1.56,1.27,2.83,2.83,2.83s2.83-1.28,2.83-2.83v-.07c0-1.56-1.27-2.83-2.83-2.83s-2.83,1.28-2.83,2.83v.07Z"/>
    <path class="cls-1" d="M395.5,2.91c0,1.56,1.27,2.83,2.83,2.83s2.83-1.28,2.83-2.83v-.08c0-1.56-1.27-2.83-2.83-2.83s-2.83,1.28-2.83,2.83v.08Z"/>
    <path class="cls-1" d="M386.08,13.03c0,1.56,1.27,2.83,2.83,2.83s2.83-1.28,2.83-2.83v-.07c0-1.56-1.27-2.83-2.83-2.83s-2.83,1.28-2.83,2.83v.07Z"/>
  </g>
</svg>